<?xml version="1.0" encoding="UTF-8" standalone="no"?>
<!-- Created with Inkscape (http://www.inkscape.org/) -->

<svg
   xmlns:dc="http://purl.org/dc/elements/1.1/"
   xmlns:cc="http://creativecommons.org/ns#"
   xmlns:rdf="http://www.w3.org/1999/02/22-rdf-syntax-ns#"
   xmlns:svg="http://www.w3.org/2000/svg"
   xmlns="http://www.w3.org/2000/svg"
   xmlns:sodipodi="http://sodipodi.sourceforge.net/DTD/sodipodi-0.dtd"
   xmlns:inkscape="http://www.inkscape.org/namespaces/inkscape"
   width="600"
   height="400"
   viewBox="0 0 600.00001 400.00001"
   id="svg2"
   version="1.1"
   inkscape:version="0.91 r13725"
   sodipodi:docname="rapid.svg">
  <defs
     id="defs4" />
  <sodipodi:namedview
     id="base"
     pagecolor="#ffffff"
     bordercolor="#666666"
     borderopacity="1.0"
     inkscape:pageopacity="0.0"
     inkscape:pageshadow="2"
     inkscape:zoom="1"
     inkscape:cx="169.70984"
     inkscape:cy="231.68998"
     inkscape:document-units="px"
     inkscape:current-layer="g4190"
     showgrid="false"
     units="px"
     inkscape:window-width="1920"
     inkscape:window-height="1147"
     inkscape:window-x="0"
     inkscape:window-y="0"
     inkscape:window-maximized="1" />
  <metadata
     id="metadata7">
    <rdf:RDF>
      <cc:Work
         rdf:about="">
        <dc:format>image/svg+xml</dc:format>
        <dc:type
           rdf:resource="http://purl.org/dc/dcmitype/StillImage" />
        <dc:title />
      </cc:Work>
    </rdf:RDF>
  </metadata>
  <g
     inkscape:label="レイヤー 1"
     inkscape:groupmode="layer"
     id="layer1"
     transform="translate(0,-652.36216)"
     style="display:none">
    <text
       xml:space="preserve"
       style="font-style:normal;font-variant:normal;font-weight:bold;font-stretch:normal;font-size:90px;line-height:100%;font-family:'Courier 10 Pitch';-inkscape-font-specification:'Courier 10 Pitch, Bold';text-align:start;letter-spacing:-3px;word-spacing:0px;writing-mode:lr-tb;text-anchor:start;fill:#000000;fill-opacity:1;stroke:none;stroke-width:1px;stroke-linecap:butt;stroke-linejoin:miter;stroke-opacity:1"
       x="301.33032"
       y="745.57715"
       id="text4136"
       sodipodi:linespacing="100%"><tspan
         sodipodi:role="line"
         id="tspan4138"
         x="299.83032"
         y="745.57715"
         style="line-height:100%;text-align:center;text-anchor:middle">Oh<tspan
   style="letter-spacing:-18px"
   id="tspan4184">, </tspan>yo<tspan
   style="letter-spacing:-12px"
   id="tspan4180">u </tspan>need</tspan><tspan
         sodipodi:role="line"
         x="299.83032"
         y="835.57715"
         id="tspan4150"
         style="line-height:100%;text-align:center;text-anchor:middle">&quot;RAPID&quot;</tspan><tspan
         sodipodi:role="line"
         x="299.83032"
         y="925.57715"
         id="tspan4152"
         style="line-height:100%;text-align:center;text-anchor:middle">prototyping</tspan><tspan
         sodipodi:role="line"
         x="299.83032"
         y="1015.5771"
         id="tspan4154"
         style="line-height:100%;text-align:center;text-anchor:middle">too?</tspan><tspan
         sodipodi:role="line"
         x="301.33032"
         y="1105.5771"
         id="tspan4148"
         style="line-height:100%;text-align:center;text-anchor:middle" /></text>
  </g>
  <g
     style="display:inline"
     transform="translate(0,-652.36216)"
     id="g4190"
     inkscape:groupmode="layer"
     inkscape:label="レイヤー 1 コピー">
    <g
       style="font-style:normal;font-variant:normal;font-weight:bold;font-stretch:normal;font-size:90px;line-height:100%;font-family:'Courier 10 Pitch';-inkscape-font-specification:'Courier 10 Pitch, Bold';text-align:start;letter-spacing:-3px;word-spacing:0px;writing-mode:lr-tb;text-anchor:start;fill:#ffffff;fill-opacity:1;stroke:none;stroke-width:1px;stroke-linecap:butt;stroke-linejoin:miter;stroke-opacity:1"
       id="text4192">
      <path
         d="m 44.076572,736.84715 c -7.2,0 -12.15,-6.21 -12.15,-17.37 0,-11.16 4.77,-17.28 12.15,-17.28 7.29,0 12.15,6.03 12.15,17.28 0,11.25 -4.86,17.37 -12.15,17.37 z m 24.75,-17.37 c 0,-16.02 -10.35,-27.45 -24.75,-27.45 -14.58,0 -24.84,11.34 -24.84,27.45 0,16.11 10.62,27.45 24.84,27.45 14.4,0 24.75,-11.34 24.75,-27.45 z"
         style="line-height:100%;text-align:center;text-anchor:middle;fill:#ffffff"
         id="path4209" />
      <path
         d="m 113.6672,735.94715 0,-16.38 c 0,-10.44 -5.49,-15.66 -14.580003,-15.66 -5.13,0 -8.82,1.89 -10.98,5.49 l 0,-18.45 c 0,-2.16 -0.54,-2.88 -2.61,-2.88 l -8.28,0 c -3.69,0 -5.49,1.17 -5.49,4.86 0,3.15 1.62,4.86 4.77,4.86 0.27,0 0.45,0 0.72,0 l 0,38.16 c -0.27,0 -0.54,0 -0.72,0 -3.15,0 -4.77,1.62 -4.77,4.77 0,3.69 1.8,4.86 5.49,4.86 l 10.89,0 c 3.69,0 5.49,-1.17 5.49,-4.86 0,-3.15 -1.62,-4.77 -4.77,-4.77 -0.18,0 -0.45,0 -0.72,0 l 0,-12.78 c 0,-6.21 4.32,-9.99 8.55,-9.99 4.950003,0 6.120003,3.42 6.120003,9.99 l 0,12.78 c -0.27,0 -0.54,0 -0.72,0 -3.150003,0 -4.770003,1.62 -4.770003,4.77 0,3.69 1.8,4.86 5.490003,4.86 l 10.89,0 c 3.69,0 5.49,-1.17 5.49,-4.86 0,-3.15 -1.62,-4.77 -4.77,-4.77 -0.18,0 -0.45,0 -0.72,0 z"
         style="line-height:100%;text-align:center;text-anchor:middle;fill:#ffffff"
         id="path4211" />
      <path
         d="m 140.95782,732.79715 -6.21,22.86 c -0.09,0.36 -0.09,0.72 -0.09,1.17 0,0.72 0.54,1.35 1.53,1.71 l 3.33,1.17 c 0.36,0.09 0.63,0.18 0.9,0.18 0.9,0 1.71,-0.54 2.16,-1.53 l 13.14,-25.74 c 0.27,-0.54 0.36,-0.99 0.36,-1.26 0,-0.54 -0.54,-0.99 -1.53,-0.99 l -10.44,0 c -2.07,0 -2.61,0.45 -3.15,2.43 z"
         style="letter-spacing:-18px;fill:#ffffff"
         id="path4213" />
      <path
         d="m 237.44907,704.98715 -10.35,0 c -3.69,0 -5.58,1.08 -5.58,4.77 0,3.15 1.71,4.86 4.86,4.86 0.27,0 0.45,0 0.72,0 l -8.28,18.72 -7.92,-18.72 c 0.27,0 0.45,0 0.72,0 3.15,0 4.86,-1.71 4.86,-4.86 0,-3.69 -1.89,-4.77 -5.58,-4.77 l -11.16,0 c -3.69,0 -5.58,1.08 -5.58,4.77 0,3.15 1.71,4.86 4.86,4.86 0.27,0 0.45,0 0.72,0 l 13.32,29.97 -4.14,8.82 -6.84,0 c -3.69,0 -5.58,1.17 -5.58,4.86 0,3.69 1.89,4.86 5.58,4.86 l 19.26,0 c 3.69,0 5.58,-1.17 5.58,-4.86 0,-3.69 -1.89,-4.86 -5.58,-4.86 l -1.98,0 18.09,-38.79 c 0.27,0 0.45,0 0.72,0 3.15,0 4.86,-1.71 4.86,-4.86 0,-3.69 -1.89,-4.77 -5.58,-4.77 z"
         style="line-height:100%;text-align:center;text-anchor:middle;fill:#ffffff"
         id="path4215" />
      <path
         d="m 293.7197,725.32715 c 0,-12.15 -9.36,-21.33 -23.94,-21.33 -14.58,0 -24.03,9.18 -24.03,21.33 0,12.15 9.45,21.33 24.03,21.33 14.58,0 23.94,-9.18 23.94,-21.33 z m -23.94,12.06 c -6.84,0 -11.79,-5.13 -11.79,-12.15 0,-6.93 4.86,-11.97 11.79,-11.97 7.02,0 11.7,5.04 11.7,11.97 0,6.93 -4.77,12.15 -11.7,12.15 z"
         style="line-height:100%;text-align:center;text-anchor:middle;fill:#ffffff"
         id="path4217" />
      <path
         d="m 338.65032,735.94715 0,-29.07 c 0,-1.17 -0.9,-1.89 -2.52,-1.89 l -8.28,0 c -3.69,0 -5.58,1.08 -5.58,4.77 0,3.15 1.71,4.86 4.86,4.86 0.27,0 0.45,0 0.72,0 l 0,12.69 c 0,6.21 -3.69,9.81 -8.28,9.81 -5.04,0 -6.48,-3.42 -6.48,-9.81 l 0,-20.43 c 0,-1.17 -0.81,-1.89 -2.43,-1.89 l -8.28,0 c -3.69,0 -5.58,1.08 -5.58,4.77 0,3.15 1.62,4.86 4.77,4.86 0.27,0 0.45,0 0.72,0 l 0,14.67 c 0,11.52 4.5,17.28 14.04,17.28 5.58,0 9.54,-2.07 12.33,-6.3 l 0,3.33 c 0,1.17 0.9,1.98 2.61,1.98 l 7.38,0 c 3.69,0 5.49,-1.17 5.49,-4.86 0,-3.15 -1.62,-4.77 -4.77,-4.77 -0.18,0 -0.45,0 -0.72,0 z"
         style="letter-spacing:-12px;fill:#ffffff"
         id="path4219" />
      <path
         d="m 423.65157,735.85715 0,-14.67 c 0,-11.52 -4.41,-17.28 -13.95,-17.28 -5.58,0 -9.63,2.16 -12.42,6.39 l 0,-3.42 c 0,-1.17 -0.81,-1.89 -2.52,-1.89 l -7.47,0 c -3.69,0 -5.49,1.17 -5.49,4.86 0,3.15 1.62,4.77 4.77,4.77 0.18,0 0.45,0 0.72,0 l 0,21.24 c -0.18,0 -0.36,0 -0.54,0 -3.33,0 -4.95,1.62 -4.95,4.86 0,3.6 1.71,4.86 5.49,4.86 l 10.89,0 c 3.78,0 5.49,-1.26 5.49,-4.86 0,-3.24 -1.62,-4.86 -4.95,-4.86 -0.18,0 -0.36,0 -0.54,0 l 0,-12.69 c 0,-6.21 3.69,-9.72 8.28,-9.72 5.04,0 6.39,3.33 6.39,9.72 l 0,12.69 c -0.18,0 -0.36,0 -0.54,0 -3.33,0 -5.04,1.62 -5.04,4.86 0,3.6 1.8,4.86 5.58,4.86 l 10.8,0 c 3.78,0 5.49,-1.26 5.49,-4.86 0,-3.24 -1.62,-4.86 -4.95,-4.86 -0.18,0 -0.36,0 -0.54,0 z"
         style="line-height:100%;text-align:center;text-anchor:middle;fill:#ffffff"
         id="path4221" />
      <path
         d="m 444.3722,727.84715 28.35,0 c 4.59,0 6.39,-0.63 6.39,-4.5 0,-10.26 -8.64,-19.35 -21.96,-19.35 -14.58,0 -23.94,9.18 -23.94,21.33 0,12.15 9.45,21.33 23.94,21.33 12.87,0 21.24,-5.04 21.24,-10.08 0,-2.61 -1.62,-4.32 -3.96,-4.32 -3.24,0 -7.47,5.31 -16.92,5.31 -7.29,0 -11.61,-3.15 -13.14,-9.72 z m 0,-6.84 c 1.53,-5.76 5.4,-8.55 11.79,-8.55 6.57,0 10.89,3.06 11.88,8.55 l -23.67,0 z"
         style="line-height:100%;text-align:center;text-anchor:middle;fill:#ffffff"
         id="path4223" />
      <path
         d="m 495.51282,727.84715 28.35,0 c 4.59,0 6.39,-0.63 6.39,-4.5 0,-10.26 -8.64,-19.35 -21.96,-19.35 -14.58,0 -23.94,9.18 -23.94,21.33 0,12.15 9.45,21.33 23.94,21.33 12.87,0 21.24,-5.04 21.24,-10.08 0,-2.61 -1.62,-4.32 -3.96,-4.32 -3.24,0 -7.47,5.31 -16.92,5.31 -7.29,0 -11.61,-3.15 -13.14,-9.72 z m 0,-6.84 c 1.53,-5.76 5.4,-8.55 11.79,-8.55 6.57,0 10.89,3.06 11.88,8.55 l -23.67,0 z"
         style="line-height:100%;text-align:center;text-anchor:middle;fill:#ffffff"
         id="path4225" />
      <path
         d="m 561.05345,697.78715 5.85,0 0,11.16 c -3.24,-2.61 -7.47,-4.05 -12.06,-4.05 -11.43,0 -20.25,9.27 -20.25,21.24 0,11.88 8.91,20.52 20.25,20.52 5.67,0 10.17,-2.16 13.14,-6.03 l 0,3.06 c 0,1.17 0.9,1.89 2.61,1.89 l 6.75,0 c 3.69,0 5.49,-1.17 5.49,-4.86 0,-3.15 -1.62,-4.77 -4.77,-4.77 -0.18,0 -0.45,0 -0.72,0 l 0,-45 c 0,-2.16 -0.54,-2.88 -2.61,-2.88 l -13.68,0 c -3.69,0 -5.58,1.17 -5.58,4.86 0,3.69 1.89,4.86 5.58,4.86 z m -4.32,39.51 c -5.76,0 -9.99,-4.77 -9.99,-11.52 0,-6.75 4.32,-11.43 9.99,-11.43 5.67,0 9.99,4.68 9.99,11.43 0,6.75 -4.23,11.52 -9.99,11.52 z"
         style="line-height:100%;text-align:center;text-anchor:middle;fill:#ffffff"
         id="path4227" />
      <path
         d="m 138.38813,805.15715 2.7,0 c 1.71,0 2.07,-0.81 2.25,-2.7 l 1.35,-16.29 c 0,-0.18 0,-0.36 0,-0.54 0,-1.44 -0.72,-2.16 -2.07,-2.16 l -5.85,0 c -1.35,0 -1.98,0.72 -1.98,2.16 0,0.18 0,0.36 0,0.54 l 1.35,16.29 c 0.18,1.89 0.54,2.7 2.25,2.7 z m 16.38,0 2.7,0 c 1.71,0 2.07,-0.81 2.25,-2.7 l 1.35,-16.29 c 0,-0.18 0,-0.36 0,-0.54 0,-1.44 -0.63,-2.16 -1.98,-2.16 l -5.85,0 c -1.35,0 -2.07,0.72 -2.07,2.16 0,0.18 0,0.36 0,0.54 l 1.35,16.29 c 0.18,1.89 0.54,2.7 2.25,2.7 z"
         style="line-height:100%;text-align:center;text-anchor:middle;fill:#ffffff"
         id="path4229" />
      <path
         d="m 191.95876,805.33715 0,-12.42 7.38,0 c 5.76,0 8.37,1.71 8.37,6.21 0,4.86 -3.06,6.21 -9.81,6.21 l -5.94,0 z m 7.74,10.98 10.8,16.56 c 1.08,1.71 1.8,2.7 4.77,2.7 l 5.4,0 c 3.69,0 5.58,-1.17 5.58,-4.86 0,-3.24 -1.71,-4.86 -5.13,-4.86 -0.36,0 -0.9,0 -1.35,0.09 l -7.2,-11.34 c -0.72,-1.08 -1.26,-2.25 -2.52,-2.97 6.66,-2.34 10.26,-7.29 10.26,-13.86 0,-9.27 -6.3,-14.31 -18.9,-14.31 l -20.25,0 c -3.69,0 -5.49,1.26 -5.49,4.86 0,3.15 1.71,4.86 4.77,4.86 0.27,0 0.45,0 0.72,0 l 0,32.76 c -0.27,0 -0.45,0 -0.72,0 -3.06,0 -4.77,1.62 -4.77,4.77 0,3.6 1.8,4.86 5.49,4.86 l 11.34,0 c 3.69,0 5.49,-1.17 5.49,-4.86 0,-3.15 -1.62,-4.77 -4.77,-4.77 -0.18,0 -0.45,0 -0.72,0 l 0,-11.61 4.14,0 c 1.17,0 2.25,0.72 3.06,1.98 z"
         style="line-height:100%;text-align:center;text-anchor:middle;fill:#ffffff"
         id="path4231" />
      <path
         d="m 237.96938,825.94715 1.89,-5.13 18.99,0 1.8,5.13 -1.53,0 c -3.69,0 -5.58,1.08 -5.58,4.77 0,3.69 1.89,4.86 5.58,4.86 l 13.23,0 c 3.69,0 5.58,-1.17 5.58,-4.86 0,-3.15 -1.71,-4.77 -4.86,-4.77 -0.18,0 -0.45,0 -0.72,0 l -13.95,-38.16 c -1.17,-3.24 -1.53,-4.32 -5.49,-4.32 l -16.47,0 c -3.78,0 -5.58,1.26 -5.58,4.86 0,3.69 1.8,4.86 5.49,4.86 l 3.6,0 -11.79,32.76 c -0.27,0 -0.54,0 -0.72,0 -3.15,0 -4.86,1.62 -4.86,4.77 0,3.69 1.89,4.86 5.58,4.86 l 11.34,0 c 3.69,0 5.58,-1.17 5.58,-4.86 0,-3.69 -1.89,-4.77 -5.58,-4.77 l -1.53,0 z m 4.95,-14.22 6.39,-18.54 6.39,18.54 -12.78,0 z"
         style="line-height:100%;text-align:center;text-anchor:middle;fill:#ffffff"
         id="path4233" />
      <path
         d="m 295.41001,793.54715 6.21,0 c 6.93,0 10.44,2.25 10.44,6.66 0,4.41 -3.51,6.84 -10.44,6.84 l -6.21,0 0,-13.5 z m 7.47,-10.08 -18.18,0 c -3.6,0 -5.4,1.35 -5.4,4.86 0,3.15 1.71,4.86 4.77,4.86 0.18,0 0.45,0 0.63,0 l 0,32.76 c -0.27,0 -0.45,0 -0.72,0 -2.97,0 -4.68,1.71 -4.68,4.77 0,3.6 1.8,4.86 5.4,4.86 l 15.12,0 c 3.6,0 5.4,-1.26 5.4,-4.86 0,-3.6 -1.8,-4.77 -5.4,-4.77 l -4.41,0 0,-9 7.47,0 c 14.49,0 21.78,-5.94 21.78,-17.19 0,-10.62 -7.29,-16.29 -21.78,-16.29 z"
         style="line-height:100%;text-align:center;text-anchor:middle;fill:#ffffff"
         id="path4235" />
      <path
         d="m 365.54063,783.55715 -26.1,0 c -3.69,0 -5.58,1.08 -5.58,4.77 0,3.69 1.89,4.86 5.58,4.86 l 7.38,0 0,32.76 -7.38,0 c -3.69,0 -5.58,1.08 -5.58,4.77 0,3.69 1.89,4.86 5.58,4.86 l 26.1,0 c 3.78,0 5.49,-1.44 5.49,-4.86 0,-3.69 -1.8,-4.77 -5.49,-4.77 l -7.38,0 0,-32.76 7.38,0 c 3.69,0 5.58,-1.17 5.58,-4.86 0,-3.78 -1.89,-4.77 -5.58,-4.77 z"
         style="line-height:100%;text-align:center;text-anchor:middle;fill:#ffffff"
         id="path4237" />
      <path
         d="m 396.43126,825.85715 0,-32.85 c 0.9,-0.09 1.8,-0.09 2.61,-0.09 10.8,0 16.02,5.4 16.02,16.47 0,11.34 -5.13,16.56 -16.11,16.56 -0.81,0 -1.62,0 -2.52,-0.09 z m -11.34,9.72 8.28,0 c 1.71,0 3.33,0 4.95,0 6.66,0 12.33,-0.18 16.92,-2.7 7.83,-4.14 12.42,-12.51 12.42,-23.4 0,-10.44 -4.05,-18.36 -10.98,-22.59 -5.4,-3.24 -12.33,-3.42 -20.7,-3.42 -0.9,0 -1.71,0 -2.61,0 l -8.28,0 c -3.78,0 -5.58,1.26 -5.58,4.86 0,3.15 1.71,4.86 4.86,4.86 0.27,0 0.45,0 0.72,0 l 0,32.76 c -0.27,0 -0.54,0 -0.72,0 -3.15,0 -4.86,1.62 -4.86,4.77 0,3.69 1.89,4.86 5.58,4.86 z"
         style="line-height:100%;text-align:center;text-anchor:middle;fill:#ffffff"
         id="path4239" />
      <path
         d="m 445.23188,805.15715 2.7,0 c 1.71,0 2.07,-0.81 2.25,-2.7 l 1.35,-16.29 c 0,-0.18 0,-0.36 0,-0.54 0,-1.44 -0.72,-2.16 -2.07,-2.16 l -5.85,0 c -1.35,0 -1.98,0.72 -1.98,2.16 0,0.18 0,0.36 0,0.54 l 1.35,16.29 c 0.18,1.89 0.54,2.7 2.25,2.7 z m 16.38,0 2.7,0 c 1.71,0 2.07,-0.81 2.25,-2.7 l 1.35,-16.29 c 0,-0.18 0,-0.36 0,-0.54 0,-1.44 -0.63,-2.16 -1.98,-2.16 l -5.85,0 c -1.35,0 -2.07,0.72 -2.07,2.16 0,0.18 0,0.36 0,0.54 l 1.35,16.29 c 0.18,1.89 0.54,2.7 2.25,2.7 z"
         style="line-height:100%;text-align:center;text-anchor:middle;fill:#ffffff"
         id="path4241" />
      <path
         d="m 42.856885,933.40715 -5.58,0 0,-11.97 c 3.06,2.52 7.29,3.87 11.97,3.87 11.52,0 20.25,-8.82 20.25,-21.15 0,-11.52 -8.64,-20.25 -20.79,-20.25 -5.31,0 -9.63,2.07 -12.6,6.03 l 0,-3.15 c 0,-1.17 -0.81,-1.8 -2.52,-1.8 l -6.75,0 c -3.69,0 -5.49,1.08 -5.49,4.77 0,3.15 1.62,4.86 4.77,4.86 0.27,0 0.45,0 0.72,0 l 0,38.79 -2.61,0 c -3.69,0 -5.49,1.17 -5.49,4.86 0,3.69 1.8,4.77 5.49,4.77 l 18.63,0 c 3.69,0 5.49,-1.08 5.49,-4.77 0,-3.69 -1.8,-4.86 -5.49,-4.86 z m -5.4,-28.71 c 0,-6.75 4.23,-11.43 9.99,-11.43 5.76,0 9.99,4.68 9.99,11.43 0,6.75 -4.32,11.43 -9.99,11.43 -5.76,0 -9.99,-4.68 -9.99,-11.43 z"
         style="line-height:100%;text-align:center;text-anchor:middle;fill:#ffffff"
         id="path4243" />
      <path
         d="m 94.80751,915.94715 0,-14.22 c 5.04,-5.13 8.91,-7.74 11.7,-7.74 2.43,0 4.86,2.88 8.46,2.88 3.6,0 6.21,-2.43 6.21,-5.85 0,-4.23 -3.42,-7.2 -9.36,-7.2 -6.93,0 -11.97,3.15 -17.91,9.54 l 0,-6.48 c 0,-1.17 -0.9,-1.89 -2.52,-1.89 l -9.36,0 c -3.69,0 -5.49,1.08 -5.49,4.77 0,3.69 1.8,4.86 5.49,4.86 l 1.89,0 0,21.33 -3.33,0 c -3.69,0 -5.58,1.08 -5.58,4.77 0,3.69 1.89,4.86 5.58,4.86 l 24.57,0 c 3.69,0 5.49,-1.17 5.49,-4.86 0,-3.69 -1.8,-4.77 -5.49,-4.77 l -10.35,0 z"
         style="line-height:100%;text-align:center;text-anchor:middle;fill:#ffffff"
         id="path4245" />
      <path
         d="m 171.86813,905.32715 c 0,-12.15 -9.36,-21.33 -23.94,-21.33 -14.58,0 -24.03,9.18 -24.03,21.33 0,12.15 9.45,21.33 24.03,21.33 14.58,0 23.94,-9.18 23.94,-21.33 z m -23.94,12.06 c -6.84,0 -11.79,-5.13 -11.79,-12.15 0,-6.93 4.86,-11.97 11.79,-11.97 7.02,0 11.7,5.04 11.7,11.97 0,6.93 -4.77,12.15 -11.7,12.15 z"
         style="line-height:100%;text-align:center;text-anchor:middle;fill:#ffffff"
         id="path4247" />
      <path
         d="m 181.06876,897.04715 4.14,0 0,11.25 c 0,0.36 0,0.72 0,0.99 0,5.31 0.09,9.36 2.7,12.42 2.52,2.97 7.11,4.77 13.32,4.77 10.89,0 20.07,-4.86 20.07,-8.82 0,-3.06 -2.07,-5.04 -4.41,-5.04 -3.78,0 -8.1,3.96 -14.31,3.96 -5.22,0 -6.57,-2.52 -6.57,-8.28 l 0,-11.25 13.41,0 c 3.69,0 5.58,-1.17 5.58,-4.86 0,-3.69 -1.89,-4.77 -5.58,-4.77 l -13.41,0 0,-10.26 c 0,-3.78 -1.35,-5.49 -5.49,-5.49 -3.42,0 -5.31,1.89 -5.31,3.69 0,0.18 0,0.72 0,1.8 l 0,10.26 -4.14,0 c -3.69,0 -5.49,1.08 -5.49,4.77 0,3.69 1.8,4.86 5.49,4.86 z"
         style="line-height:100%;text-align:center;text-anchor:middle;fill:#ffffff"
         id="path4249" />
      <path
         d="m 274.14938,905.32715 c 0,-12.15 -9.36,-21.33 -23.94,-21.33 -14.58,0 -24.03,9.18 -24.03,21.33 0,12.15 9.45,21.33 24.03,21.33 14.58,0 23.94,-9.18 23.94,-21.33 z m -23.94,12.06 c -6.84,0 -11.79,-5.13 -11.79,-12.15 0,-6.93 4.86,-11.97 11.79,-11.97 7.02,0 11.7,5.04 11.7,11.97 0,6.93 -4.77,12.15 -11.7,12.15 z"
         style="line-height:100%;text-align:center;text-anchor:middle;fill:#ffffff"
         id="path4251" />
      <path
         d="m 283.35001,897.04715 4.14,0 0,11.25 c 0,0.36 0,0.72 0,0.99 0,5.31 0.09,9.36 2.7,12.42 2.52,2.97 7.11,4.77 13.32,4.77 10.89,0 20.07,-4.86 20.07,-8.82 0,-3.06 -2.07,-5.04 -4.41,-5.04 -3.78,0 -8.1,3.96 -14.31,3.96 -5.22,0 -6.57,-2.52 -6.57,-8.28 l 0,-11.25 13.41,0 c 3.69,0 5.58,-1.17 5.58,-4.86 0,-3.69 -1.89,-4.77 -5.58,-4.77 l -13.41,0 0,-10.26 c 0,-3.78 -1.35,-5.49 -5.49,-5.49 -3.42,0 -5.31,1.89 -5.31,3.69 0,0.18 0,0.72 0,1.8 l 0,10.26 -4.14,0 c -3.69,0 -5.49,1.08 -5.49,4.77 0,3.69 1.8,4.86 5.49,4.86 z"
         style="line-height:100%;text-align:center;text-anchor:middle;fill:#ffffff"
         id="path4253" />
      <path
         d="m 371.30063,884.98715 -10.35,0 c -3.69,0 -5.58,1.08 -5.58,4.77 0,3.15 1.71,4.86 4.86,4.86 0.27,0 0.45,0 0.72,0 l -8.28,18.72 -7.92,-18.72 c 0.27,0 0.45,0 0.72,0 3.15,0 4.86,-1.71 4.86,-4.86 0,-3.69 -1.89,-4.77 -5.58,-4.77 l -11.16,0 c -3.69,0 -5.58,1.08 -5.58,4.77 0,3.15 1.71,4.86 4.86,4.86 0.27,0 0.45,0 0.72,0 l 13.32,29.97 -4.14,8.82 -6.84,0 c -3.69,0 -5.58,1.17 -5.58,4.86 0,3.69 1.89,4.86 5.58,4.86 l 19.26,0 c 3.69,0 5.58,-1.17 5.58,-4.86 0,-3.69 -1.89,-4.86 -5.58,-4.86 l -1.98,0 18.09,-38.79 c 0.27,0 0.45,0 0.72,0 3.15,0 4.86,-1.71 4.86,-4.86 0,-3.69 -1.89,-4.77 -5.58,-4.77 z"
         style="line-height:100%;text-align:center;text-anchor:middle;fill:#ffffff"
         id="path4255" />
      <path
         d="m 400.84126,933.40715 -5.58,0 0,-11.97 c 3.06,2.52 7.29,3.87 11.97,3.87 11.52,0 20.25,-8.82 20.25,-21.15 0,-11.52 -8.64,-20.25 -20.79,-20.25 -5.31,0 -9.63,2.07 -12.6,6.03 l 0,-3.15 c 0,-1.17 -0.81,-1.8 -2.52,-1.8 l -6.75,0 c -3.69,0 -5.49,1.08 -5.49,4.77 0,3.15 1.62,4.86 4.77,4.86 0.27,0 0.45,0 0.72,0 l 0,38.79 -2.61,0 c -3.69,0 -5.49,1.17 -5.49,4.86 0,3.69 1.8,4.77 5.49,4.77 l 18.63,0 c 3.69,0 5.49,-1.08 5.49,-4.77 0,-3.69 -1.8,-4.86 -5.49,-4.86 z m -5.4,-28.71 c 0,-6.75 4.23,-11.43 9.99,-11.43 5.76,0 9.99,4.68 9.99,11.43 0,6.75 -4.32,11.43 -9.99,11.43 -5.76,0 -9.99,-4.68 -9.99,-11.43 z"
         style="line-height:100%;text-align:center;text-anchor:middle;fill:#ffffff"
         id="path4257" />
      <path
         d="m 449.10188,873.55715 c 0,4.5 0.99,5.31 5.4,5.31 4.95,0 5.4,-0.99 5.4,-6.66 0,-5.49 -0.45,-7.11 -5.31,-7.11 -4.68,0 -5.49,1.44 -5.49,8.46 z m 9.27,11.43 -13.23,0 c -3.69,0 -5.49,1.08 -5.49,4.77 0,3.69 1.8,4.86 5.49,4.86 l 4.95,0 0,21.33 -9.45,0 c -3.69,0 -5.58,1.08 -5.58,4.77 0,3.69 1.89,4.86 5.58,4.86 l 29.7,0 c 3.69,0 5.58,-1.17 5.58,-4.86 0,-3.69 -1.89,-4.77 -5.58,-4.77 l -9.45,0 0,-29.07 c 0,-1.17 -0.9,-1.89 -2.52,-1.89 z"
         style="line-height:100%;text-align:center;text-anchor:middle;fill:#ffffff"
         id="path4259" />
      <path
         d="m 524.36251,915.85715 0,-14.67 c 0,-11.52 -4.41,-17.28 -13.95,-17.28 -5.58,0 -9.63,2.16 -12.42,6.39 l 0,-3.42 c 0,-1.17 -0.81,-1.89 -2.52,-1.89 l -7.47,0 c -3.69,0 -5.49,1.17 -5.49,4.86 0,3.15 1.62,4.77 4.77,4.77 0.18,0 0.45,0 0.72,0 l 0,21.24 c -0.18,0 -0.36,0 -0.54,0 -3.33,0 -4.95,1.62 -4.95,4.86 0,3.6 1.71,4.86 5.49,4.86 l 10.89,0 c 3.78,0 5.49,-1.26 5.49,-4.86 0,-3.24 -1.62,-4.86 -4.95,-4.86 -0.18,0 -0.36,0 -0.54,0 l 0,-12.69 c 0,-6.21 3.69,-9.72 8.28,-9.72 5.04,0 6.39,3.33 6.39,9.72 l 0,12.69 c -0.18,0 -0.36,0 -0.54,0 -3.33,0 -5.04,1.62 -5.04,4.86 0,3.6 1.8,4.86 5.58,4.86 l 10.8,0 c 3.78,0 5.49,-1.26 5.49,-4.86 0,-3.24 -1.62,-4.86 -4.95,-4.86 -0.18,0 -0.36,0 -0.54,0 z"
         style="line-height:100%;text-align:center;text-anchor:middle;fill:#ffffff"
         id="path4261" />
      <path
         d="m 555.16313,915.22715 c -5.76,0 -9.99,-4.59 -9.99,-10.98 0,-6.48 4.23,-11.07 9.99,-11.07 5.76,0 9.99,4.59 9.99,11.07 0,6.39 -4.23,10.98 -9.99,10.98 z m 20.61,9.63 0,-30.24 c 0.27,0 0.45,0 0.72,0 3.15,0 4.77,-1.71 4.77,-4.86 0,-3.69 -1.8,-4.77 -5.49,-4.77 l -7.2,0 c -1.71,0 -2.52,0.63 -2.52,1.8 l 0,2.25 c -2.97,-3.51 -6.93,-5.13 -12.15,-5.13 -12.15,0 -20.88,8.64 -20.88,20.43 0,11.52 8.19,19.71 19.98,19.71 4.5,0 8.46,-1.17 12.42,-3.51 0,0.72 0.09,1.35 0.09,1.98 0,8.37 -2.88,10.89 -10.98,10.89 -4.86,0 -7.92,-0.81 -9.72,-0.81 -3.15,0 -4.95,1.98 -4.95,4.77 0,4.05 4.41,5.85 13.86,5.85 15.48,0 22.05,-5.58 22.05,-18.36 z"
         style="line-height:100%;text-align:center;text-anchor:middle;fill:#ffffff"
         id="path4263" />
      <path
         d="m 206.63907,987.04715 4.14,0 0,11.25 c 0,0.36 0,0.72 0,0.99 0,5.30995 0.09,9.35995 2.7,12.41995 2.52,2.97 7.11,4.77 13.32,4.77 10.89,0 20.07,-4.86 20.07,-8.82 0,-3.06 -2.07,-5.04 -4.41,-5.04 -3.78,0 -8.1,3.96 -14.31,3.96 -5.22,0 -6.57,-2.52 -6.57,-8.27995 l 0,-11.25 13.41,0 c 3.69,0 5.58,-1.17 5.58,-4.86 0,-3.69 -1.89,-4.77 -5.58,-4.77 l -13.41,0 0,-10.26 c 0,-3.78 -1.35,-5.49 -5.49,-5.49 -3.42,0 -5.31,1.89 -5.31,3.69 0,0.18 0,0.72 0,1.8 l 0,10.26 -4.14,0 c -3.69,0 -5.49,1.08 -5.49,4.77 0,3.69 1.8,4.86 5.49,4.86 z"
         style="line-height:100%;text-align:center;text-anchor:middle;fill:#ffffff"
         id="path4265" />
      <path
         d="m 299.7197,995.32715 c 0,-12.15 -9.36,-21.33 -23.94,-21.33 -14.58,0 -24.03,9.18 -24.03,21.33 0,12.14995 9.45,21.32995 24.03,21.32995 14.58,0 23.94,-9.18 23.94,-21.32995 z m -23.94,12.05995 c -6.84,0 -11.79,-5.13 -11.79,-12.14995 0,-6.93 4.86,-11.97 11.79,-11.97 7.02,0 11.7,5.04 11.7,11.97 0,6.92995 -4.77,12.14995 -11.7,12.14995 z"
         style="line-height:100%;text-align:center;text-anchor:middle;fill:#ffffff"
         id="path4267" />
      <path
         d="m 350.86032,995.32715 c 0,-12.15 -9.36,-21.33 -23.94,-21.33 -14.58,0 -24.03,9.18 -24.03,21.33 0,12.14995 9.45,21.32995 24.03,21.32995 14.58,0 23.94,-9.18 23.94,-21.32995 z m -23.94,12.05995 c -6.84,0 -11.79,-5.13 -11.79,-12.14995 0,-6.93 4.86,-11.97 11.79,-11.97 7.02,0 11.7,5.04 11.7,11.97 0,6.92995 -4.77,12.14995 -11.7,12.14995 z"
         style="line-height:100%;text-align:center;text-anchor:middle;fill:#ffffff"
         id="path4269" />
      <path
         d="m 366.09095,1009.1871 c 0,3.87 3.24,7.02 8.55,7.02 5.31,0 8.64,-3.06 8.64,-7.02 0,-4.05 -3.33,-6.93 -8.64,-6.93 -5.31,0 -8.55,2.97 -8.55,6.93 z m 3.42,-16.28995 0,2.61 c 0,2.25 1.8,3.78 4.95,3.78 2.97,0 4.86,-1.44 4.86,-3.87 l 0,-3.42 c 10.62,-2.7 16.2,-8.46 16.2,-15.93 0,-9.45 -6.48,-15.57 -17.28,-15.57 -9.54,0 -16.92,2.61 -16.92,5.76 l 0,5.58 c 0,2.97 1.08,4.32 3.69,4.32 3.51,0 4.05,-1.71 4.59,-4.14 0.54,-2.43 1.53,-3.33 6.66,-3.33 4.95,0 7.92,2.79 7.92,6.93 0,5.67 -4.41,6.39 -9.45,9.18 -4.32,2.34 -5.22,4.14 -5.22,8.1 z"
         style="line-height:100%;text-align:center;text-anchor:middle;fill:#ffffff"
         id="path4271" />
    </g>
  </g>
</svg>
