<?xml version="1.0" encoding="UTF-8" standalone="no"?>
<!-- Created with Inkscape (http://www.inkscape.org/) -->

<svg
   xmlns:dc="http://purl.org/dc/elements/1.1/"
   xmlns:cc="http://creativecommons.org/ns#"
   xmlns:rdf="http://www.w3.org/1999/02/22-rdf-syntax-ns#"
   xmlns:svg="http://www.w3.org/2000/svg"
   xmlns="http://www.w3.org/2000/svg"
   xmlns:xlink="http://www.w3.org/1999/xlink"
   xmlns:sodipodi="http://sodipodi.sourceforge.net/DTD/sodipodi-0.dtd"
   xmlns:inkscape="http://www.inkscape.org/namespaces/inkscape"
   width="160"
   height="50"
   viewBox="0 0 160 50"
   id="svg4817"
   version="1.1"
   inkscape:version="0.91 r13725"
   sodipodi:docname="brand.svg">
  <defs
     id="defs4819">
    <linearGradient
       inkscape:collect="always"
       id="linearGradient7086">
      <stop
         style="stop-color:#ff0000;stop-opacity:1"
         offset="0"
         id="stop7088" />
      <stop
         style="stop-color:#400000;stop-opacity:1"
         offset="1"
         id="stop7090" />
    </linearGradient>
    <linearGradient
       inkscape:collect="always"
       xlink:href="#linearGradient7086"
       id="linearGradient7092"
       x1="30"
       y1="120"
       x2="90"
       y2="0"
       gradientUnits="userSpaceOnUse"
       gradientTransform="matrix(0.26677957,0,0,0.26666655,7.9864525,1012.3621)" />
  </defs>
  <sodipodi:namedview
     id="base"
     pagecolor="#ffffff"
     bordercolor="#666666"
     borderopacity="1.0"
     inkscape:pageopacity="0.0"
     inkscape:pageshadow="2"
     inkscape:zoom="2.8284271"
     inkscape:cx="93.23578"
     inkscape:cy="1.4314575"
     inkscape:document-units="px"
     inkscape:current-layer="g7069"
     showgrid="true"
     inkscape:object-nodes="true"
     inkscape:snap-bbox="true"
     inkscape:bbox-paths="true"
     inkscape:bbox-nodes="true"
     inkscape:snap-bbox-edge-midpoints="false"
     inkscape:snap-bbox-midpoints="false"
     units="mm"
     inkscape:window-width="1920"
     inkscape:window-height="1147"
     inkscape:window-x="0"
     inkscape:window-y="0"
     inkscape:window-maximized="1"
     inkscape:snap-global="false"
     showguides="false" />
  <metadata
     id="metadata4822">
    <rdf:RDF>
      <cc:Work
         rdf:about="">
        <dc:format>image/svg+xml</dc:format>
        <dc:type
           rdf:resource="http://purl.org/dc/dcmitype/StillImage" />
        <dc:title />
      </cc:Work>
    </rdf:RDF>
  </metadata>
  <g
     inkscape:label="レイヤー 1"
     inkscape:groupmode="layer"
     id="layer1"
     transform="translate(0,-1002.3621)"
     style="display:none">
    <ellipse
       style="opacity:1;fill:#000000;fill-opacity:1;stroke:none;stroke-width:2;stroke-linecap:round;stroke-linejoin:round;stroke-miterlimit:4;stroke-dasharray:none;stroke-opacity:1"
       id="path5367"
       cx="31.666666"
       cy="1020.6955"
       rx="13.333334"
       ry="13.333338" />
    <ellipse
       style="opacity:1;fill:#ffffff;fill-opacity:1;stroke:none;stroke-width:2;stroke-linecap:round;stroke-linejoin:round;stroke-miterlimit:4;stroke-dasharray:none;stroke-opacity:1"
       id="path5381"
       cx="25.000002"
       cy="1020.6955"
       rx="6.6666665"
       ry="6.6666689" />
    <path
       style="opacity:1;fill:#000000;fill-opacity:1;stroke:none;stroke-width:2;stroke-linecap:round;stroke-linejoin:round;stroke-miterlimit:4;stroke-dasharray:none;stroke-opacity:1"
       id="path5371"
       sodipodi:type="arc"
       sodipodi:cx="15.000001"
       sodipodi:cy="1017.3621"
       sodipodi:rx="10.000001"
       sodipodi:ry="10.000004"
       sodipodi:start="3.1415927"
       sodipodi:end="0"
       d="m 5,1017.3621 a 10.000001,10.000004 0 0 1 10.000001,-10 10.000001,10.000004 0 0 1 10.000001,10 l -10.000001,0 z" />
    <ellipse
       style="opacity:1;fill:#ffffff;fill-opacity:1;stroke:none;stroke-width:2;stroke-linecap:round;stroke-linejoin:round;stroke-miterlimit:4;stroke-dasharray:none;stroke-opacity:1"
       id="path5379"
       cx="8.333334"
       cy="1017.3621"
       rx="3.3333335"
       ry="3.3333344" />
    <path
       style="fill:#000000;fill-opacity:1;fill-rule:evenodd;stroke:none;stroke-width:1px;stroke-linecap:butt;stroke-linejoin:miter;stroke-opacity:1"
       d="m 11.666667,1017.3621 13.333335,0 0,23.3333 -13.333335,6.6667 z"
       id="path5369"
       inkscape:connector-curvature="0"
       sodipodi:nodetypes="ccccc" />
    <path
       style="fill:#ffffff;fill-opacity:1;fill-rule:evenodd;stroke:none;stroke-width:1px;stroke-linecap:butt;stroke-linejoin:miter;stroke-opacity:1"
       d="m 300,952.36215 0,30 -60,0 c 20,-10 40,-20 60,-30 z"
       id="path5369-6-2-6"
       inkscape:connector-curvature="0"
       sodipodi:nodetypes="cccc" />
    <text
       xml:space="preserve"
       style="font-style:normal;font-variant:normal;font-weight:normal;font-stretch:normal;font-size:40px;line-height:125%;font-family:'Courier 10 Pitch';-inkscape-font-specification:'Courier 10 Pitch, Normal';text-align:start;letter-spacing:0px;word-spacing:0px;writing-mode:lr-tb;text-anchor:start;fill:#000000;fill-opacity:1;stroke:none;stroke-width:1px;stroke-linecap:butt;stroke-linejoin:miter;stroke-opacity:1"
       x="48.527565"
       y="1035.6849"
       id="text4149"
       sodipodi:linespacing="125%"><tspan
         sodipodi:role="line"
         id="tspan4151"
         x="48.527565"
         y="1035.6849">pieni</tspan></text>
  </g>
  <g
     style="display:inline"
     transform="translate(0,-1002.3621)"
     id="g7069"
     inkscape:groupmode="layer"
     inkscape:label="レイヤー 1 コピー">
    <path
       style="opacity:1;fill:url(#linearGradient7092);fill-opacity:1;stroke:none;stroke-width:2;stroke-linecap:round;stroke-linejoin:round;stroke-miterlimit:4;stroke-dasharray:none;stroke-opacity:1"
       d="M 15.98984,1012.3621 A 8.0033872,7.999996 0 0 0 8,1020.0958 a 2.6677957,2.6666652 0 0 1 2.654248,-2.4002 2.6677957,2.6666652 0 0 1 2.667795,2.6665 l 0,24 10.671182,-5.3335 0,-6.7723 a 10.671182,10.666662 0 0 0 5.335593,1.4393 A 10.671182,10.666662 0 0 0 40,1023.0286 a 10.671182,10.666662 0 0 0 -10.671182,-10.6665 10.671182,10.666662 0 0 0 -7.220763,2.8426 8.0033872,7.999996 0 0 0 -6.118215,-2.8426 z m 8.003385,5.3335 a 5.3355908,5.3333304 0 0 1 5.335593,5.333 5.3355908,5.3333304 0 0 1 -5.335593,5.3335 l 0,-8 a 8.0033872,7.999996 0 0 0 -0.459569,-2.6432 5.3355908,5.3333304 0 0 1 0.459569,-0.024 z"
       id="ellipse7071"
       inkscape:connector-curvature="0" />
    <path
       sodipodi:nodetypes="cccc"
       inkscape:connector-curvature="0"
       id="path7081"
       d="m 300,952.36215 0,30 -60,0 c 20,-10 40,-20 60,-30 z"
       style="fill:#ffffff;fill-opacity:1;fill-rule:evenodd;stroke:none;stroke-width:1px;stroke-linecap:butt;stroke-linejoin:miter;stroke-opacity:1" />
    <g
       style="font-style:normal;font-variant:normal;font-weight:bold;font-stretch:normal;font-size:30px;line-height:100%;font-family:'Courier 10 Pitch';-inkscape-font-specification:'Courier 10 Pitch Bold';text-align:start;letter-spacing:-1px;word-spacing:0px;writing-mode:lr-tb;text-anchor:start;fill:#4d4d4d;fill-opacity:1;stroke:none;stroke-width:1px;stroke-linecap:butt;stroke-linejoin:miter;stroke-opacity:1"
       id="text4172">
      <path
         d="m 56.983545,1035.4114 -1.86,0 0,-3.99 c 1.02,0.84 2.43,1.29 3.99,1.29 3.84,0 6.75,-2.94 6.75,-7.05 0,-3.84 -2.88,-6.75 -6.93,-6.75 -1.77,0 -3.21,0.69 -4.2,2.01 l 0,-1.05 c 0,-0.39 -0.27,-0.6 -0.84,-0.6 l -2.25,0 c -1.23,0 -1.83,0.36 -1.83,1.59 0,1.05 0.54,1.62 1.59,1.62 0.09,0 0.15,0 0.24,0 l 0,12.93 -0.87,0 c -1.23,0 -1.83,0.39 -1.83,1.62 0,1.23 0.6,1.59 1.83,1.59 l 6.21,0 c 1.23,0 1.83,-0.36 1.83,-1.59 0,-1.23 -0.6,-1.62 -1.83,-1.62 z m -1.8,-9.57 c 0,-2.25 1.41,-3.81 3.33,-3.81 1.92,0 3.33,1.56 3.33,3.81 0,2.25 -1.44,3.81 -3.33,3.81 -1.92,0 -3.33,-1.56 -3.33,-3.81 z"
         style="font-style:normal;font-variant:normal;font-weight:bold;font-stretch:normal;font-size:30px;line-height:100%;font-family:'Courier 10 Pitch';-inkscape-font-specification:'Courier 10 Pitch Bold';text-align:start;letter-spacing:-1px;writing-mode:lr-tb;text-anchor:start;fill:#4d4d4d;fill-opacity:1"
         id="path4155" />
      <path
         d="m 73.07042,1015.4614 c 0,1.5 0.33,1.77 1.8,1.77 1.65,0 1.8,-0.33 1.8,-2.22 0,-1.83 -0.15,-2.37 -1.77,-2.37 -1.56,0 -1.83,0.48 -1.83,2.82 z m 3.09,3.81 -4.41,0 c -1.23,0 -1.83,0.36 -1.83,1.59 0,1.23 0.6,1.62 1.83,1.62 l 1.65,0 0,7.11 -3.15,0 c -1.23,0 -1.86,0.36 -1.86,1.59 0,1.23 0.63,1.62 1.86,1.62 l 9.9,0 c 1.23,0 1.86,-0.39 1.86,-1.62 0,-1.23 -0.63,-1.59 -1.86,-1.59 l -3.15,0 0,-9.69 c 0,-0.39 -0.3,-0.63 -0.84,-0.63 z"
         style="font-style:normal;font-variant:normal;font-weight:bold;font-stretch:normal;font-size:30px;line-height:100%;font-family:'Courier 10 Pitch';-inkscape-font-specification:'Courier 10 Pitch Bold';text-align:start;letter-spacing:-1px;writing-mode:lr-tb;text-anchor:start;fill:#4d4d4d;fill-opacity:1"
         id="path4157" />
      <path
         d="m 88.017295,1026.8914 9.45,0 c 1.53,0 2.13,-0.21 2.13,-1.5 0,-3.42 -2.88,-6.45 -7.32,-6.45 -4.86,0 -7.98,3.06 -7.98,7.11 0,4.05 3.15,7.11 7.98,7.11 4.29,0 7.08,-1.68 7.08,-3.36 0,-0.87 -0.54,-1.44 -1.32,-1.44 -1.08,0 -2.49,1.77 -5.64,1.77 -2.43,0 -3.87,-1.05 -4.38,-3.24 z m 0,-2.28 c 0.51,-1.92 1.8,-2.85 3.93,-2.85 2.19,0 3.63,1.02 3.96,2.85 l -7.89,0 z"
         style="font-style:normal;font-variant:normal;font-weight:bold;font-stretch:normal;font-size:30px;line-height:100%;font-family:'Courier 10 Pitch';-inkscape-font-specification:'Courier 10 Pitch Bold';text-align:start;letter-spacing:-1px;writing-mode:lr-tb;text-anchor:start;fill:#4d4d4d;fill-opacity:1"
         id="path4159" />
      <path
         d="m 115.20417,1029.5614 0,-4.89 c 0,-3.84 -1.47,-5.76 -4.65,-5.76 -1.86,0 -3.21,0.72 -4.14,2.13 l 0,-1.14 c 0,-0.39 -0.27,-0.63 -0.84,-0.63 l -2.49,0 c -1.23,0 -1.83,0.39 -1.83,1.62 0,1.05 0.54,1.59 1.59,1.59 0.06,0 0.15,0 0.24,0 l 0,7.08 c -0.06,0 -0.12,0 -0.18,0 -1.11,0 -1.65,0.54 -1.65,1.62 0,1.2 0.57,1.62 1.83,1.62 l 3.63,0 c 1.26,0 1.83,-0.42 1.83,-1.62 0,-1.08 -0.54,-1.62 -1.65,-1.62 -0.06,0 -0.12,0 -0.18,0 l 0,-4.23 c 0,-2.07 1.23,-3.24 2.76,-3.24 1.68,0 2.13,1.11 2.13,3.24 l 0,4.23 c -0.06,0 -0.12,0 -0.18,0 -1.11,0 -1.68,0.54 -1.68,1.62 0,1.2 0.6,1.62 1.86,1.62 l 3.6,0 c 1.26,0 1.83,-0.42 1.83,-1.62 0,-1.08 -0.54,-1.62 -1.65,-1.62 -0.06,0 -0.12,0 -0.18,0 z"
         style="font-style:normal;font-variant:normal;font-weight:bold;font-stretch:normal;font-size:30px;line-height:100%;font-family:'Courier 10 Pitch';-inkscape-font-specification:'Courier 10 Pitch Bold';text-align:start;letter-spacing:-1px;writing-mode:lr-tb;text-anchor:start;fill:#4d4d4d;fill-opacity:1"
         id="path4161" />
      <path
         d="m 124.21104,1015.4614 c 0,1.5 0.33,1.77 1.8,1.77 1.65,0 1.8,-0.33 1.8,-2.22 0,-1.83 -0.15,-2.37 -1.77,-2.37 -1.56,0 -1.83,0.48 -1.83,2.82 z m 3.09,3.81 -4.41,0 c -1.23,0 -1.83,0.36 -1.83,1.59 0,1.23 0.6,1.62 1.83,1.62 l 1.65,0 0,7.11 -3.15,0 c -1.23,0 -1.86,0.36 -1.86,1.59 0,1.23 0.63,1.62 1.86,1.62 l 9.9,0 c 1.23,0 1.86,-0.39 1.86,-1.62 0,-1.23 -0.63,-1.59 -1.86,-1.59 l -3.15,0 0,-9.69 c 0,-0.39 -0.3,-0.63 -0.84,-0.63 z"
         style="font-style:normal;font-variant:normal;font-weight:bold;font-stretch:normal;font-size:30px;line-height:100%;font-family:'Courier 10 Pitch';-inkscape-font-specification:'Courier 10 Pitch Bold';text-align:start;letter-spacing:-1px;writing-mode:lr-tb;text-anchor:start;fill:#4d4d4d;fill-opacity:1"
         id="path4163" />
    </g>
    <g
       style="font-style:normal;font-variant:normal;font-weight:normal;font-stretch:normal;font-size:11.25px;line-height:100%;font-family:'Courier 10 Pitch';-inkscape-font-specification:'Courier 10 Pitch, Normal';text-align:start;letter-spacing:0px;word-spacing:0px;writing-mode:lr-tb;text-anchor:start;display:inline;fill:#666666;fill-opacity:1;stroke:none;stroke-width:1px;stroke-linecap:butt;stroke-linejoin:miter;stroke-opacity:1"
       id="text4172-2">
      <path
         d="m 64.602442,1042.6335 -1.1475,0 0,-1.6762 0.95625,0 c 1.81125,0 2.7225,-0.6975 2.7225,-2.025 0,-1.3275 -0.91125,-2.0363 -2.7225,-2.0363 l -2.5425,0 c -0.25875,0 -0.3825,0.135 -0.3825,0.3938 0,0.3712 0.21375,0.3937 0.72,0.3937 l 0.3825,0 0,4.95 -0.70875,0 c -0.27,0 -0.39375,0.1238 -0.39375,0.3825 0,0.2588 0.12375,0.3938 0.3825,0.3938 l 2.68875,0 c 0.3825,0 0.55125,-0.056 0.55125,-0.3938 0,-0.27 -0.1575,-0.3825 -0.50625,-0.3825 z m -1.1475,-4.95 1.0125,0 c 1.1475,0 1.7325,0.4163 1.7325,1.2713 0,0.855 -0.585,1.2825 -1.7325,1.2825 l -1.0125,0 0,-2.5538 z"
         style="font-style:normal;font-variant:normal;font-weight:normal;font-stretch:normal;font-size:11.25px;line-height:100%;font-family:'Courier 10 Pitch';-inkscape-font-specification:'Courier 10 Pitch, Normal';text-align:start;letter-spacing:-1px;writing-mode:lr-tb;text-anchor:start;fill:#666666;fill-opacity:1"
         id="path4166" />
      <path
         d="m 68.82877,1042.6335 0,-2.2837 2.6325,0 0,2.2837 c -0.10125,0 -0.19125,0 -0.27,0 -0.48375,0 -0.68625,0.068 -0.68625,0.3825 0,0.3713 0.225,0.3938 0.68625,0.3938 l 1.125,0 c 0.45,0 0.66375,-0.022 0.66375,-0.3938 0,-0.3037 -0.14625,-0.3825 -0.5175,-0.3825 -0.045,0 -0.09,0 -0.14625,0 l 0,-4.95 c 0.045,0 0.09,0 0.135,0 0.37125,0 0.52875,-0.09 0.52875,-0.3937 0,-0.2588 -0.135,-0.3938 -0.405,-0.3938 -0.12375,0 -0.21375,0 -0.25875,0 l -1.08,0 c -0.495,0 -0.73125,0 -0.73125,0.3938 0,0.2925 0.18,0.3937 0.585,0.3937 0.2475,0 0.37125,0 0.37125,0 l 0,1.9125 -2.6325,0 0,-1.9125 c 0.09,0 0.16875,0 0.2475,0 0.495,0 0.70875,-0.068 0.70875,-0.3937 0,-0.3713 -0.21375,-0.3938 -0.675,-0.3938 l -1.1475,0 c -0.43875,0 -0.6525,0.023 -0.6525,0.3938 0,0.3037 0.1575,0.3937 0.52875,0.3937 0.045,0 0.09,0 0.135,0 l 0,4.95 c -0.05625,0 -0.10125,0 -0.14625,0 -0.37125,0 -0.5175,0.079 -0.5175,0.3825 0,0.2588 0.135,0.3938 0.405,0.3938 0.1125,0 0.18,0 0.2475,0 l 1.20375,0 c 0.41625,0 0.61875,-0.045 0.61875,-0.3938 0,-0.2925 -0.18,-0.3937 -0.585,-0.3937 -0.2475,0 -0.37125,0.011 -0.37125,0.011 z"
         style="font-style:normal;font-variant:normal;font-weight:normal;font-stretch:normal;font-size:11.25px;line-height:100%;font-family:'Courier 10 Pitch';-inkscape-font-specification:'Courier 10 Pitch, Normal';text-align:start;letter-spacing:-1px;writing-mode:lr-tb;text-anchor:start;fill:#666666;fill-opacity:1"
         id="path4168" />
      <path
         d="m 76.137598,1042.6335 -1.1475,0 0,-1.6762 0.95625,0 c 1.81125,0 2.7225,-0.6975 2.7225,-2.025 0,-1.3275 -0.91125,-2.0363 -2.7225,-2.0363 l -2.5425,0 c -0.25875,0 -0.3825,0.135 -0.3825,0.3938 0,0.3712 0.21375,0.3937 0.72,0.3937 l 0.3825,0 0,4.95 -0.70875,0 c -0.27,0 -0.39375,0.1238 -0.39375,0.3825 0,0.2588 0.12375,0.3938 0.3825,0.3938 l 2.68875,0 c 0.3825,0 0.55125,-0.056 0.55125,-0.3938 0,-0.27 -0.1575,-0.3825 -0.50625,-0.3825 z m -1.1475,-4.95 1.0125,0 c 1.1475,0 1.7325,0.4163 1.7325,1.2713 0,0.855 -0.585,1.2825 -1.7325,1.2825 l -1.0125,0 0,-2.5538 z"
         style="font-style:normal;font-variant:normal;font-weight:normal;font-stretch:normal;font-size:11.25px;line-height:100%;font-family:'Courier 10 Pitch';-inkscape-font-specification:'Courier 10 Pitch, Normal';text-align:start;letter-spacing:-1px;writing-mode:lr-tb;text-anchor:start;fill:#666666;fill-opacity:1"
         id="path4170" />
      <path
         d="m 87.402754,1042.6335 -0.95625,0 0,-2.43 1.45125,0 c 0,0.056 0,0.1125 0,0.1575 0,0.4725 0.05625,0.675 0.34875,0.675 0.27,0 0.3375,-0.1462 0.3375,-0.4837 l 0,-1.395 c 0,-0.3038 -0.10125,-0.4388 -0.3375,-0.4388 -0.2925,0 -0.34875,0.2025 -0.34875,0.675 0,0.045 0,0.1013 0,0.1463 l -1.45125,0 0,-1.8563 2.98125,0 0,0.7875 c 0,0.1013 0,0.1575 0,0.18 0,0.3375 0.10125,0.4838 0.39375,0.4838 0.25875,0 0.3825,-0.135 0.3825,-0.3825 l 0,-1.4175 c 0,-0.2925 -0.135,-0.4388 -0.3825,-0.4388 l -4.86,0 c -0.2475,0 -0.3825,0.135 -0.3825,0.3938 0,0.27 0.135,0.3937 0.43875,0.3937 0.03375,0 0.10125,0 0.21375,0 l 0.34875,0 0,4.95 -0.34875,0 c -0.10125,0 -0.1575,0 -0.18,0 -0.3375,0 -0.4725,0.09 -0.4725,0.3825 0,0.2588 0.135,0.3938 0.3825,0.3938 l 2.71125,0 c 0.2475,0 0.3825,-0.135 0.3825,-0.3938 0,-0.27 -0.135,-0.3825 -0.43875,-0.3825 -0.03375,0 -0.10125,0 -0.21375,0 z"
         style="font-style:normal;font-variant:normal;font-weight:normal;font-stretch:normal;font-size:11.25px;line-height:100%;font-family:'Courier 10 Pitch';-inkscape-font-specification:'Courier 10 Pitch, Normal';text-align:start;letter-spacing:-1px;writing-mode:lr-tb;text-anchor:start;fill:#666666;fill-opacity:1"
         id="path4172" />
      <path
         d="m 92.675332,1042.6335 0,-2.2725 c 0.73125,-0.8325 1.35,-1.2712 1.9575,-1.2712 0.4275,0 0.66375,0.3375 0.95625,0.3375 0.23625,0 0.48375,-0.2475 0.48375,-0.5175 0,-0.405 -0.405,-0.7088 -1.09125,-0.7088 -0.8775,0 -1.62,0.4275 -2.30625,1.2938 l 0,-0.9338 c 0,-0.1575 -0.10125,-0.225 -0.30375,-0.225 l -1.24875,0 c -0.2925,0 -0.43875,0.1238 -0.43875,0.3825 0,0.2813 0.1575,0.3938 0.5175,0.3938 0.05625,0 0.1575,0 0.28125,0 l 0.37125,0 0,3.5212 -0.9675,0 c -0.30375,0 -0.46125,0.1238 -0.46125,0.3825 0,0.2588 0.1575,0.3938 0.45,0.3938 l 3.58875,0 c 0.32625,0 0.45,-0.079 0.45,-0.3938 0,-0.27 -0.135,-0.3825 -0.41625,-0.3825 l -1.8225,0 z"
         style="font-style:normal;font-variant:normal;font-weight:normal;font-stretch:normal;font-size:11.25px;line-height:100%;font-family:'Courier 10 Pitch';-inkscape-font-specification:'Courier 10 Pitch, Normal';text-align:start;letter-spacing:-1px;writing-mode:lr-tb;text-anchor:start;fill:#666666;fill-opacity:1"
         id="path4174" />
      <path
         d="m 100.23166,1042.7123 0.0562,0.3375 c 0.045,0.2362 0.18,0.36 0.3825,0.36 l 0.86625,0 c 0.2925,0 0.43875,-0.135 0.43875,-0.3938 0,-0.3262 -0.19125,-0.3825 -0.6525,-0.3825 l -0.28125,0 0,-2.4862 c 0,-1.3275 -0.6525,-1.9463 -2.058749,-1.9463 -1.2375,0 -2.0475,0.3938 -2.0475,0.7763 0,0.2812 0.16875,0.4612 0.37125,0.4612 0.4275,0 0.8775,-0.4612 1.65375,-0.4612 0.84375,0 1.237499,0.3937 1.237499,1.2375 0,0.011 0,0.023 0,0.034 -0.449999,-0.1125 -0.877499,-0.1687 -1.304999,-0.1687 -1.63125,0 -2.5425,0.6862 -2.5425,1.8225 0,0.9675 0.72,1.6425 1.8225,1.6425 0.75375,0 1.4625,-0.2925 2.058749,-0.8325 z m -0.0338,-1.7325 0,0.5962 c 0,0.495 -0.899999,1.125 -1.889999,1.125 -0.64125,0 -1.08,-0.3712 -1.08,-0.855 0,-0.6187 0.64125,-1.0575 1.81125,-1.0575 0.405,0 0.7875,0.067 1.158749,0.1913 z"
         style="font-style:normal;font-variant:normal;font-weight:normal;font-stretch:normal;font-size:11.25px;line-height:100%;font-family:'Courier 10 Pitch';-inkscape-font-specification:'Courier 10 Pitch, Normal';text-align:start;letter-spacing:-1px;writing-mode:lr-tb;text-anchor:start;fill:#666666;fill-opacity:1"
         id="path4176" />
      <path
         d="m 106.75299,1040.3498 0,2.5087 c 0,0.36 0.1575,0.5513 0.46125,0.5513 l 0.66375,0 c 0.25875,0 0.39375,-0.135 0.39375,-0.3938 0,-0.315 -0.1575,-0.3825 -0.57375,-0.3825 -0.0337,0 -0.0675,0 -0.10125,0 l 0,-2.4862 c 0,-1.2825 -0.3375,-1.9575 -1.35,-1.9575 -0.52875,0 -0.9225,0.225 -1.22625,0.675 -0.1575,-0.45 -0.495,-0.675 -1.00125,-0.675 -0.4275,0 -0.765,0.1462 -1.0575,0.4725 -0.0225,-0.27 -0.0787,-0.3263 -0.315,-0.3263 l -0.84375,0 c -0.2925,0 -0.4275,0.1238 -0.4275,0.3825 0,0.2813 0.1575,0.3938 0.50625,0.3938 0.0787,0 0.16875,0 0.2475,0 l 0,3.5212 c -0.045,0 -0.0787,0 -0.1125,0 -0.45,0 -0.64125,0.068 -0.64125,0.3825 0,0.2588 0.135,0.3938 0.4275,0.3938 l 1.4625,0 c 0.32625,0 0.45,-0.079 0.45,-0.3938 0,-0.3037 -0.14625,-0.3937 -0.52875,-0.3937 -0.0675,0 -0.14625,0.011 -0.23625,0.011 l 0,-3.0262 c 0.2025,-0.3825 0.4725,-0.5738 0.81,-0.5738 0.41625,0 0.72,0.3263 0.72,0.8888 0,0.068 0,0.2137 0,0.4275 l 0,2.3175 c 0,0.056 0,0.1012 0,0.1462 0,0.4275 0.0225,0.5963 0.3825,0.5963 l 0.6975,0 c 0.25875,0 0.3825,-0.135 0.3825,-0.3938 0,-0.315 -0.1575,-0.3825 -0.57375,-0.3825 -0.0338,0 -0.0675,0 -0.10125,0 l 0,-2.2837 c 0,-0.8775 0.3825,-1.3163 0.88875,-1.3163 0.55125,0 0.59625,0.4838 0.59625,1.3163 z"
         style="font-style:normal;font-variant:normal;font-weight:normal;font-stretch:normal;font-size:11.25px;line-height:100%;font-family:'Courier 10 Pitch';-inkscape-font-specification:'Courier 10 Pitch, Normal';text-align:start;letter-spacing:-1px;writing-mode:lr-tb;text-anchor:start;fill:#666666;fill-opacity:1"
         id="path4178" />
      <path
         d="m 108.68432,1040.3948 c 0.21375,-0.9113 0.9225,-1.4513 1.89,-1.4513 0.88875,0 1.58625,0.5738 1.6875,1.4513 l -3.5775,0 z m -0.0225,0.72 3.69,0 c 0.675,0 0.91125,0 0.91125,-0.5175 0,-1.2263 -1.02375,-2.4075 -2.68875,-2.4075 -1.69875,0 -2.86875,1.0912 -2.86875,2.6662 0,1.6425 1.0575,2.6888 2.75625,2.6888 0.7425,0 1.54125,-0.18 2.295,-0.5513 0.32625,-0.1575 0.48375,-0.3262 0.48375,-0.5512 0,-0.2025 -0.16875,-0.36 -0.3825,-0.36 -0.495,0 -1.20375,0.6862 -2.3175,0.6862 -1.13625,0 -1.8225,-0.5962 -1.87875,-1.6537 z"
         style="font-style:normal;font-variant:normal;font-weight:normal;font-stretch:normal;font-size:11.25px;line-height:100%;font-family:'Courier 10 Pitch';-inkscape-font-specification:'Courier 10 Pitch, Normal';text-align:start;letter-spacing:-1px;writing-mode:lr-tb;text-anchor:start;fill:#666666;fill-opacity:1"
         id="path4180" />
      <path
         d="m 116.24064,1040.6198 0.73125,2.4975 c 0.10125,0.3375 0.21375,0.4837 0.54,0.4837 0.25875,0 0.3825,-0.1012 0.46125,-0.3712 l 1.2375,-4.1175 c 0.34875,0 0.4725,-0.1013 0.4725,-0.3938 0,-0.2587 -0.12375,-0.3825 -0.3375,-0.3825 l -1.47375,0 c -0.34875,0 -0.48375,0.067 -0.48375,0.3825 0,0.3263 0.18,0.405 0.64125,0.405 0.1125,0 0.23625,0 0.3825,-0.011 l -0.9225,3.2962 -0.68625,-2.2837 c -0.10125,-0.3375 -0.21375,-0.4838 -0.54,-0.4838 -0.25875,0 -0.3825,0.1125 -0.46125,0.3713 l -0.70875,2.3962 -0.945,-3.2962 c 0.135,0.011 0.2475,0.011 0.36,0.011 0.48375,0 0.675,-0.079 0.675,-0.405 0,-0.3262 -0.14625,-0.3825 -0.495,-0.3825 l -1.47375,0 c -0.28125,0 -0.41625,0.135 -0.41625,0.3825 0,0.2925 0.135,0.3938 0.48375,0.3938 l 1.26,4.005 c 0.10125,0.3375 0.21375,0.4837 0.54,0.4837 0.2475,0 0.39375,-0.1125 0.46125,-0.3712 l 0.6975,-2.61 z"
         style="font-style:normal;font-variant:normal;font-weight:normal;font-stretch:normal;font-size:11.25px;line-height:100%;font-family:'Courier 10 Pitch';-inkscape-font-specification:'Courier 10 Pitch, Normal';text-align:start;letter-spacing:-1px;writing-mode:lr-tb;text-anchor:start;fill:#666666;fill-opacity:1"
         id="path4182" />
      <path
         d="m 124.92197,1040.8785 c 0,-1.5187 -1.125,-2.6662 -2.86875,-2.6662 -1.74375,0 -2.88,1.1362 -2.88,2.6662 0,1.53 1.13625,2.6663 2.88,2.6663 1.74375,0 2.86875,-1.1363 2.86875,-2.6663 z m -2.86875,1.9013 c -1.13625,0 -1.92375,-0.81 -1.92375,-1.9013 0,-1.0912 0.7875,-1.9125 1.92375,-1.9125 1.13625,0 1.92375,0.8213 1.92375,1.9125 0,1.1025 -0.7875,1.9013 -1.92375,1.9013 z"
         style="font-style:normal;font-variant:normal;font-weight:normal;font-stretch:normal;font-size:11.25px;line-height:100%;font-family:'Courier 10 Pitch';-inkscape-font-specification:'Courier 10 Pitch, Normal';text-align:start;letter-spacing:-1px;writing-mode:lr-tb;text-anchor:start;fill:#666666;fill-opacity:1"
         id="path4184" />
      <path
         d="m 127.2808,1042.6335 0,-2.2725 c 0.73125,-0.8325 1.35,-1.2712 1.9575,-1.2712 0.4275,0 0.66375,0.3375 0.95625,0.3375 0.23625,0 0.48375,-0.2475 0.48375,-0.5175 0,-0.405 -0.405,-0.7088 -1.09125,-0.7088 -0.8775,0 -1.62,0.4275 -2.30625,1.2938 l 0,-0.9338 c 0,-0.1575 -0.10125,-0.225 -0.30375,-0.225 l -1.24875,0 c -0.2925,0 -0.43875,0.1238 -0.43875,0.3825 0,0.2813 0.1575,0.3938 0.5175,0.3938 0.0562,0 0.1575,0 0.28125,0 l 0.37125,0 0,3.5212 -0.9675,0 c -0.30375,0 -0.46125,0.1238 -0.46125,0.3825 0,0.2588 0.1575,0.3938 0.45,0.3938 l 3.58875,0 c 0.32625,0 0.45,-0.079 0.45,-0.3938 0,-0.27 -0.135,-0.3825 -0.41625,-0.3825 l -1.8225,0 z"
         style="font-style:normal;font-variant:normal;font-weight:normal;font-stretch:normal;font-size:11.25px;line-height:100%;font-family:'Courier 10 Pitch';-inkscape-font-specification:'Courier 10 Pitch, Normal';text-align:start;letter-spacing:-1px;writing-mode:lr-tb;text-anchor:start;fill:#666666;fill-opacity:1"
         id="path4186" />
      <path
         d="m 132.58713,1041.306 0.495,-0.45 1.63125,1.7775 c -0.28125,0.09 -0.4275,0.225 -0.4275,0.4275 0,0.2475 0.14625,0.3488 0.46125,0.3488 l 1.485,0 c 0.28125,0 0.43875,-0.135 0.43875,-0.3938 0,-0.2812 -0.12375,-0.3937 -0.43875,-0.3937 l -0.48375,0 -2.07,-2.25 0.79875,-0.6975 c 0.39375,-0.3375 0.765,-0.5288 1.035,-0.5625 0.4275,-0.056 0.6975,-0.023 0.6975,-0.405 0,-0.2475 -0.14625,-0.3713 -0.4275,-0.3713 l -1.485,0 c -0.315,0 -0.4725,0.1125 -0.4725,0.3263 0,0.1687 0.1125,0.2925 0.34875,0.3937 l -1.58625,1.3275 0,-3.9375 c 0,-0.135 -0.10125,-0.225 -0.315,-0.225 l -1.04625,0 c -0.2925,0 -0.43875,0.135 -0.43875,0.3938 0,0.36 0.23625,0.3937 0.7425,0.3937 l 0.225,0 0,5.625 -0.25875,0 c -0.48375,0 -0.6975,0.045 -0.6975,0.3825 0,0.2588 0.1575,0.3938 0.45,0.3938 l 1.0125,0 c 0.18,0 0.32625,-0.1688 0.32625,-0.4838 l 0,-1.62 z"
         style="font-style:normal;font-variant:normal;font-weight:normal;font-stretch:normal;font-size:11.25px;line-height:100%;font-family:'Courier 10 Pitch';-inkscape-font-specification:'Courier 10 Pitch, Normal';text-align:start;letter-spacing:-1px;writing-mode:lr-tb;text-anchor:start;fill:#666666;fill-opacity:1"
         id="path4188" />
    </g>
  </g>
</svg>
