<?xml version="1.0" encoding="UTF-8" standalone="no"?>
<!-- Created with Inkscape (http://www.inkscape.org/) -->

<svg
   xmlns:dc="http://purl.org/dc/elements/1.1/"
   xmlns:cc="http://creativecommons.org/ns#"
   xmlns:rdf="http://www.w3.org/1999/02/22-rdf-syntax-ns#"
   xmlns:svg="http://www.w3.org/2000/svg"
   xmlns="http://www.w3.org/2000/svg"
   xmlns:sodipodi="http://sodipodi.sourceforge.net/DTD/sodipodi-0.dtd"
   xmlns:inkscape="http://www.inkscape.org/namespaces/inkscape"
   width="600"
   height="400"
   viewBox="0 0 600.00001 400.00001"
   id="svg2"
   version="1.1"
   inkscape:version="0.91 r13725"
   sodipodi:docname="rapid (コピー).svg">
  <defs
     id="defs4" />
  <sodipodi:namedview
     id="base"
     pagecolor="#ffffff"
     bordercolor="#666666"
     borderopacity="1.0"
     inkscape:pageopacity="0.0"
     inkscape:pageshadow="2"
     inkscape:zoom="1.4142136"
     inkscape:cx="303.45131"
     inkscape:cy="229.68998"
     inkscape:document-units="px"
     inkscape:current-layer="g4189"
     showgrid="false"
     units="px"
     inkscape:window-width="1920"
     inkscape:window-height="1147"
     inkscape:window-x="0"
     inkscape:window-y="0"
     inkscape:window-maximized="1" />
  <metadata
     id="metadata7">
    <rdf:RDF>
      <cc:Work
         rdf:about="">
        <dc:format>image/svg+xml</dc:format>
        <dc:type
           rdf:resource="http://purl.org/dc/dcmitype/StillImage" />
        <dc:title />
      </cc:Work>
    </rdf:RDF>
  </metadata>
  <g
     inkscape:label="レイヤー 1"
     inkscape:groupmode="layer"
     id="layer1"
     transform="translate(0,-652.36216)"
     style="display:none">
    <text
       xml:space="preserve"
       style="font-style:normal;font-variant:normal;font-weight:bold;font-stretch:normal;font-size:90px;line-height:100%;font-family:'Courier 10 Pitch';-inkscape-font-specification:'Courier 10 Pitch, Bold';text-align:start;letter-spacing:-3px;word-spacing:0px;writing-mode:lr-tb;text-anchor:start;fill:#000000;fill-opacity:1;stroke:none;stroke-width:1px;stroke-linecap:butt;stroke-linejoin:miter;stroke-opacity:1"
       x="296.51999"
       y="761.48218"
       id="text4136"
       sodipodi:linespacing="100%"><tspan
         sodipodi:role="line"
         id="tspan4138"
         x="295.01999"
         y="761.48218"
         style="font-style:normal;font-variant:normal;font-weight:bold;font-stretch:normal;font-size:80px;line-height:100%;font-family:'M+ 2c';-inkscape-font-specification:'M+ 2c, Bold';text-align:center;writing-mode:lr-tb;text-anchor:middle"><tspan
   style="letter-spacing:-12px"
   id="tspan4187">おぉ</tspan><tspan
   style="letter-spacing:-36px"
   id="tspan4181">、</tspan>あなたも</tspan><tspan
         sodipodi:role="line"
         x="295.01999"
         y="841.48218"
         id="tspan4150"
         style="font-style:normal;font-variant:normal;font-weight:bold;font-stretch:normal;font-size:80px;line-height:100%;font-family:'M+ 2c';-inkscape-font-specification:'M+ 2c, Bold';text-align:center;writing-mode:lr-tb;text-anchor:middle">&quot;高速&quot;</tspan><tspan
         sodipodi:role="line"
         x="289.01999"
         y="921.48218"
         id="tspan4152"
         style="font-style:normal;font-variant:normal;font-weight:bold;font-stretch:normal;font-size:80px;line-height:100%;font-family:'M+ 2c';-inkscape-font-specification:'M+ 2c, Bold';text-align:center;letter-spacing:-15px;writing-mode:lr-tb;text-anchor:middle">プロトタイピングが</tspan><tspan
         sodipodi:role="line"
         x="295.01999"
         y="1001.4822"
         id="tspan4154"
         style="font-style:normal;font-variant:normal;font-weight:bold;font-stretch:normal;font-size:80px;line-height:100%;font-family:'M+ 2c';-inkscape-font-specification:'M+ 2c, Bold';text-align:center;writing-mode:lr-tb;text-anchor:middle">必要ですか？</tspan><tspan
         sodipodi:role="line"
         x="296.51999"
         y="1081.4822"
         id="tspan4148"
         style="font-style:normal;font-variant:normal;font-weight:bold;font-stretch:normal;font-size:90px;line-height:100%;font-family:'M+ 2c';-inkscape-font-specification:'M+ 2c, Bold';text-align:center;writing-mode:lr-tb;text-anchor:middle" /></text>
  </g>
  <g
     style="display:inline"
     transform="translate(0,-652.36216)"
     id="g4189"
     inkscape:groupmode="layer"
     inkscape:label="レイヤー 1 コピー">
    <g
       style="font-style:normal;font-variant:normal;font-weight:bold;font-stretch:normal;font-size:90px;line-height:100%;font-family:'Courier 10 Pitch';-inkscape-font-specification:'Courier 10 Pitch, Bold';text-align:start;letter-spacing:-3px;word-spacing:0px;writing-mode:lr-tb;text-anchor:start;fill:#ffffff;fill-opacity:1;stroke:none;stroke-width:1px;stroke-linecap:butt;stroke-linejoin:miter;stroke-opacity:1"
       id="text4191">
      <path
         d="m 77.659989,697.24218 10.4,0 q 0,7.6 0.08,11.36 9.36,-0.64 17.520001,-1.52 l 0.56,8.8 q -10.880001,1.12 -17.840001,1.6 0.08,1.12 0.08,3.36 0,2.16 0,3.28 0,0.72 0.08,2.24 0.08,1.52 0.08,2.24 4.8,-0.72 10.16,-0.72 10.160001,0 16.080001,5.12 6,5.04 6,13.28 0,8.64 -5.28,13.92 -5.2,5.28 -13.92,5.28 -4.960001,0 -8.560001,-1.36 l 1.44,-8.72 q 3.28,1.04 6.880001,1.04 4.24,0 6.64,-2.48 2.4,-2.56 2.4,-7.12 0,-9.6 -13.600001,-9.6 -4,0 -8.08,0.64 0.08,3.84 0.08,11.6 0,8.48 -2.88,11.84 -2.88,3.36 -9.6,3.36 -7.68,0 -13.04,-4.08 -5.36,-4.16 -5.36,-9.52 0,-5.84 5.44,-11.28 5.52,-5.44 14.8,-8.64 0,-1.2 -0.08,-3.52 -0.08,-2.32 -0.08,-3.44 0,-1.04 0,-3.12 0,-2.08 -0.08,-3.12 -7.04,0.32 -16.32,0.32 l 0,-8.8 q 9.2,0 16.16,-0.32 -0.16,-7.84 -0.16,-11.92 z m 30.640001,14.96 7.12,-5.68 q 6.96,7.92 12.08,14.8 l -7.36,5.36 q -5.12,-6.96 -11.84,-14.48 z m -29.840001,28.72 q -4.64,2 -7.36,4.64 -2.72,2.64 -2.72,4.96 0,2 1.92,3.6 2,1.52 4.48,1.52 2.32,0 2.96,-1.04 0.72,-1.12 0.72,-5.12 l 0,-8.56 z"
         style="letter-spacing:-12px;fill:#ffffff"
         id="path4208" />
      <path
         d="m 188.69999,730.12218 -6.48,4.72 q -4,-5.6 -9.44,-11.76 l 6.32,-5.04 q 5.68,6.56 9.6,12.08 z m -40.4,-2.24 q -6.24,0.24 -12.96,0.24 l 0,-7.92 q 8.64,0 12.8,-0.16 -0.08,-3.12 -0.08,-9.44 l 9.28,0 q 0,6.08 0.08,8.96 3.68,-0.24 13.52,-1.28 l 0.56,7.92 q -7.04,0.72 -13.92,1.2 0,0.8 0,2.32 0.08,1.52 0.08,2.32 0,0.56 0,1.68 0.08,1.04 0.08,1.6 3.52,-0.48 7.36,-0.48 8.08,0 12.96,4.24 4.96,4.16 4.96,10.72 0,7.04 -4.32,11.36 -4.32,4.32 -11.36,4.32 -3.84,0 -6.8,-1.04 l 1.04,-7.68 q 2.56,0.8 5.28,0.8 3.12,0 4.96,-1.92 1.84,-1.92 1.84,-5.36 0,-7.2 -10.08,-7.2 -2.64,0 -5.68,0.4 0.08,2.88 0.08,8.64 0,7.12 -2.48,9.92 -2.48,2.8 -8.16,2.8 -6.32,0 -10.72,-3.36 -4.32,-3.36 -4.32,-7.92 0,-4.72 4.32,-9.12 4.4,-4.4 11.84,-6.96 0,-3.6 -0.08,-5.36 0,-0.64 -0.08,-2.08 0,-1.44 0,-2.16 z m 0.32,18.24 q -3.36,1.52 -5.36,3.44 -1.92,1.92 -1.92,3.6 0,1.44 1.36,2.64 1.44,1.12 3.2,1.12 1.76,0 2.24,-0.8 0.56,-0.8 0.56,-4 0,-1.04 -0.08,-3.04 0,-2 0,-2.96 z"
         style="letter-spacing:-12px;fill:#ffffff"
         id="path4210" />
      <path
         d="m 191.57999,750.20218 7.84,-6.72 q 7.36,8.08 15.36,17.92 l -8.32,6.08 q -6.96,-8.8 -14.88,-17.28 z"
         style="letter-spacing:-36px;fill:#ffffff"
         id="path4212" />
      <path
         d="m 256.05999,696.92218 10.16,0 0,9.44 q 14.08,-0.56 31.76,-2.24 l 0.64,8.8 q -18,1.68 -32.24,2.24 0,1.36 0.08,4.08 0.08,2.72 0.08,4.16 5.6,-1.12 11.44,-1.12 12.24,0 18.88,5.68 6.72,5.6 6.72,15.12 0,9.28 -6.56,15.52 -6.48,6.16 -17.44,7.44 l -2.24,-8.56 q 7.6,-1.12 11.92,-5.04 4.4,-3.92 4.4,-9.36 0,-6.88 -5.76,-9.92 -6.16,14.24 -15.6,21.84 -9.36,7.52 -19.68,7.52 -6.48,0 -10.32,-3.68 -3.84,-3.76 -3.84,-10.16 0,-6.32 4.8,-12.24 4.88,-6 13.2,-9.76 0,-1.92 -0.08,-5.6 -0.08,-3.68 -0.16,-5.6 -9.28,0.16 -14,0.16 l 0,-8.8 q 4.8,0 13.92,-0.16 0,-1.6 -0.08,-4.8 0,-3.28 0,-4.96 z m 22,34.16 -0.08,0 q -5.6,0 -11.2,1.44 0.32,9.68 0.56,14.48 6.16,-5.92 10.72,-15.92 z m -20.64,21.92 q -0.48,-11.2 -0.64,-16.24 -3.92,2.48 -6.16,5.52 -2.24,2.96 -2.24,5.84 0,5.36 5.28,5.36 1.84,0 3.76,-0.48 z"
         style="font-style:normal;font-variant:normal;font-weight:bold;font-stretch:normal;font-size:80px;line-height:100%;font-family:'M+ 2c';-inkscape-font-specification:'M+ 2c, Bold';text-align:center;writing-mode:lr-tb;text-anchor:middle;fill:#ffffff"
         id="path4214" />
      <path
         d="m 329.61999,697.16218 9.84,1.2 q -1.92,8.96 -2.16,10.16 5.36,-0.56 12,-1.44 l 0.64,9.04 q -8,1.12 -14.96,1.68 -4.72,18.08 -12.88,38.16 l -9.52,-2.88 q 7.6,-18.88 12,-34.72 -6.24,0.16 -9.6,0.16 l 0,-9.04 q 6.16,0 12,-0.24 1.36,-5.52 2.64,-12.08 z m 27.12,17.92 3.04,-9.04 q 12.32,3.12 23.84,7.76 l -3.44,8.96 q -10.96,-4.48 -23.44,-7.68 z m 8.96,26.4 q 6.64,4 15.84,12.08 l -6.24,7.36 q -4.88,-4.48 -9.68,-8.16 -0.88,6.72 -4.88,9.68 -3.92,3.04 -11.68,3.04 -8.32,0 -13.12,-3.92 -4.72,-3.92 -4.72,-10.72 0,-6.56 4.72,-10.48 4.72,-3.92 13.12,-3.92 3.44,0 6.24,0.64 -0.32,-9.36 0.32,-14.56 l 10.24,0.08 q -0.64,5.04 -0.16,17.36 l 0,1.52 z m -10.16,5.2 q -3.52,-1.44 -6.96,-1.44 -3.28,0 -5.12,1.6 -1.84,1.52 -1.84,4 0,2.8 1.84,4.32 1.84,1.52 5.12,1.52 4.16,0 5.6,-1.68 1.44,-1.68 1.44,-6.88 0,-0.16 -0.08,-0.64 0,-0.48 0,-0.8 z"
         style="font-style:normal;font-variant:normal;font-weight:bold;font-stretch:normal;font-size:80px;line-height:100%;font-family:'M+ 2c';-inkscape-font-specification:'M+ 2c, Bold';text-align:center;writing-mode:lr-tb;text-anchor:middle;fill:#ffffff"
         id="path4216" />
      <path
         d="m 455.65999,752.44218 1.12,9.04 q -8.56,2.16 -16,2.16 -11.52,0 -16.48,-3.04 -4.88,-3.04 -4.88,-8.96 0,-3.44 2.24,-7.36 2.24,-4 6.4,-7.52 l 7.76,4.64 q -6,5.6 -6,8.64 0,2.32 2.56,3.44 2.56,1.04 8.4,1.04 6,0 14.88,-2.08 z m -1.28,-22.16 q -14.8,0 -29.04,2.64 l -0.88,-9.04 q 14.48,-2.64 29.92,-2.64 l 0,9.04 z m -35.6,-21.76 q 10.32,-0.8 21.68,-2.24 l 0.88,9.04 q -12.48,1.68 -24.72,2.48 -5.52,23.44 -14.56,48.08 l -9.84,-2.88 q 8.72,-23.44 13.84,-44.56 -4.08,0.24 -12.48,0.4 l 0,-9.12 q 7.28,-0.16 14.64,-0.48 0.48,-2.08 2.64,-12.88 l 10.16,0.88 q -1.36,7.12 -2.24,11.28 z"
         style="font-style:normal;font-variant:normal;font-weight:bold;font-stretch:normal;font-size:80px;line-height:100%;font-family:'M+ 2c';-inkscape-font-specification:'M+ 2c, Bold';text-align:center;writing-mode:lr-tb;text-anchor:middle;fill:#ffffff"
         id="path4218" />
      <path
         d="m 489.21999,697.72218 10.96,0 q -0.08,5.68 -0.48,11.28 13.04,-0.16 23.92,-1.12 l 0,9.04 q -12.48,1.12 -24.48,1.12 l -0.24,3.36 -0.48,7.2 q 10.64,-0.32 18.8,-0.96 l 0,9.04 q -9.92,0.8 -19.28,1.04 -0.16,4.96 -0.16,7.2 0,6.08 2.4,8.64 2.48,2.56 8.24,2.56 8.08,0 11.84,-2.72 3.76,-2.72 3.76,-8.48 0,-3.12 -1.36,-8.96 l 10.4,-1.52 q 1.52,5.84 1.52,11.28 0,9.36 -6.32,14.56 -6.32,5.2 -19.84,5.2 -11.52,0 -16.56,-4.8 -5.04,-4.8 -5.04,-15.76 0,-2.24 0.16,-7.2 -9.12,-0.24 -17.76,-1.04 l 0.56,-9.04 q 8.56,0.8 17.68,1.04 0.32,-4.8 0.48,-7.28 0,-0.56 0.08,-1.68 0.08,-1.2 0.16,-1.76 -6.88,-0.24 -16.08,-1.04 l 0.64,-9.04 q 7.84,0.72 16.08,0.96 0.24,-3.68 0.4,-11.12 z"
         style="font-style:normal;font-variant:normal;font-weight:bold;font-stretch:normal;font-size:80px;line-height:100%;font-family:'M+ 2c';-inkscape-font-specification:'M+ 2c, Bold';text-align:center;writing-mode:lr-tb;text-anchor:middle;fill:#ffffff"
         id="path4220" />
      <path
         d="m 187.85874,779.88218 11.2,0 -1.6,22.4 -8,0 -1.6,-22.4 z m 16.8,0 11.2,0 -1.6,22.4 -8,0 -1.6,-22.4 z"
         style="font-style:normal;font-variant:normal;font-weight:bold;font-stretch:normal;font-size:80px;line-height:100%;font-family:'M+ 2c';-inkscape-font-specification:'M+ 2c, Bold';text-align:center;writing-mode:lr-tb;text-anchor:middle;fill:#ffffff"
         id="path4222" />
      <path
         d="m 248.97999,835.40218 18.08,0 0,-4.32 -18.08,0 0,4.32 z m -5.04,-31.28 28.16,0 0,-4.4 -28.16,0 0,4.4 z m 0,6.48 -10.48,0 0,-17.6 49.12,0 0,17.6 -38.64,0 z m -19.36,2.8 66.88,0 0,21.12 q 0,3.2 -0.16,5.04 -0.08,1.84 -0.56,3.44 -0.4,1.6 -1.04,2.32 -0.64,0.72 -2.08,1.2 -1.36,0.56 -2.96,0.64 -1.6,0.16 -4.4,0.16 -1.84,0 -9.68,-0.4 l -0.32,-4.96 -21.28,0 0,2.88 -8.88,0 0,-20.56 35.84,0 0,14.08 2.08,0 q 2.56,0 2.96,-0.4 0.4,-0.48 0.4,-3.04 l 0,-13.52 -46.72,0 0,26 -10.08,0 0,-34 z m 38.8,-31.76 29.92,0 0,8.56 -70.56,0 0,-8.56 29.92,0 0,-6.08 10.72,0 0,6.08 z"
         style="font-style:normal;font-variant:normal;font-weight:bold;font-stretch:normal;font-size:80px;line-height:100%;font-family:'M+ 2c';-inkscape-font-specification:'M+ 2c, Bold';text-align:center;writing-mode:lr-tb;text-anchor:middle;fill:#ffffff"
         id="path4224" />
      <path
         d="m 350.13999,809.56218 8,0 0,-8.48 -8,0 0,8.48 z m -18.64,0 8.24,0 0,-8.48 -8.24,0 0,8.48 z m 38.24,-28.08 0,8.32 -19.6,0 0,3.92 17.52,0 0,22.64 -13.68,0 q 6.72,5.76 16.56,10.48 l -4.64,7.92 q -9.04,-4.88 -15.76,-11.12 l 0,12.8 -10.4,0 0,-12.16 q -6.56,5.92 -15.04,10.48 l -5.28,-8.08 q 10.64,-4.72 17.36,-10.32 l -5.28,0 -9.28,0 0,-22.64 17.52,0 0,-3.92 -21.2,0 0,-8.32 21.2,0 0,-5.12 10.4,0 0,5.12 19.6,0 z m -49.52,11.28 -6.4,6.24 q -6.08,-6.56 -14,-14 l 6.8,-6.24 q 7.52,7.28 13.6,14 z m -20.72,13.36 18.56,0 0,24.8 q 1.84,3.28 4.56,4.8 2.8,1.44 8.88,2.16 6.08,0.64 18.16,0.64 l 20.88,0 -0.48,8.64 -20.64,0 q -15.6,0 -23.52,-1.6 -7.92,-1.6 -11.84,-5.68 -4.32,4 -11.04,8.56 l -4.72,-8.24 q 5.28,-3.28 9.84,-7.28 l 0,-18.16 -8.64,0 0,-8.64 z"
         style="font-style:normal;font-variant:normal;font-weight:bold;font-stretch:normal;font-size:80px;line-height:100%;font-family:'M+ 2c';-inkscape-font-specification:'M+ 2c, Bold';text-align:center;writing-mode:lr-tb;text-anchor:middle;fill:#ffffff"
         id="path4226" />
      <path
         d="m 377.13999,779.88218 11.2,0 -1.6,22.4 -8,0 -1.6,-22.4 z m 16.8,0 11.2,0 -1.6,22.4 -8,0 -1.6,-22.4 z"
         style="font-style:normal;font-variant:normal;font-weight:bold;font-stretch:normal;font-size:80px;line-height:100%;font-family:'M+ 2c';-inkscape-font-specification:'M+ 2c, Bold';text-align:center;writing-mode:lr-tb;text-anchor:middle;fill:#ffffff"
         id="path4228" />
      <path
         d="m 5.079989,874.28218 0,-9.36 45.84,0 q 0.16,-4.8 3.6,-8.08 3.52,-3.36 8.4,-3.36 4.96,0 8.48,3.52 3.52,3.52 3.52,8.48 0,4.96 -3.52,8.48 -3.52,3.52 -8.48,3.52 l -0.16,0 q -3.04,20 -15.12,31.04 -12,11.04 -34.4,14.56 l -2.4,-9.36 q 19.12,-3.36 29.28,-12.96 10.16,-9.68 12.16,-26.48 l -47.2,0 z m 61.52,-5.12 q 1.52,-1.52 1.52,-3.68 0,-2.16 -1.52,-3.68 -1.52,-1.52 -3.68,-1.52 -2.16,0 -3.68,1.52 -1.52,1.52 -1.52,3.68 0,2.16 1.52,3.68 1.52,1.52 3.68,1.52 2.16,0 3.68,-1.52 z"
         style="font-style:normal;font-variant:normal;font-weight:bold;font-stretch:normal;font-size:80px;line-height:100%;font-family:'M+ 2c';-inkscape-font-specification:'M+ 2c, Bold';text-align:center;letter-spacing:-15px;writing-mode:lr-tb;text-anchor:middle;fill:#ffffff"
         id="path4230" />
      <path
         d="m 71.359989,864.92218 60.320001,0 0,56.8 -10.72,0 0,-5.28 -38.880001,0 0,5.28 -10.72,0 0,-56.8 z m 49.600001,42.4 0,-33.28 -38.880001,0 0,33.28 38.880001,0 z"
         style="font-style:normal;font-variant:normal;font-weight:bold;font-stretch:normal;font-size:80px;line-height:100%;font-family:'M+ 2c';-inkscape-font-specification:'M+ 2c, Bold';text-align:center;letter-spacing:-15px;writing-mode:lr-tb;text-anchor:middle;fill:#ffffff"
         id="path4232" />
      <path
         d="m 149.07999,860.44218 10.88,0 0,21.92 q 18.64,4.96 35.6,12.48 l -3.68,9.04 q -15.76,-6.88 -31.92,-11.36 l 0,32.4 -10.88,0 0,-64.48 z"
         style="font-style:normal;font-variant:normal;font-weight:bold;font-stretch:normal;font-size:80px;line-height:100%;font-family:'M+ 2c';-inkscape-font-specification:'M+ 2c, Bold';text-align:center;letter-spacing:-15px;writing-mode:lr-tb;text-anchor:middle;fill:#ffffff"
         id="path4234" />
      <path
         d="m 218.95999,890.76218 4.8,-8.08 q 10.32,5.84 19.6,11.92 4,-7.76 5.2,-18.96 l -26,0 q -4.96,11.68 -15.92,22.32 l -6.48,-6.24 q 14.24,-14.72 16.96,-33.2 l 9.6,0.56 q -0.32,3.52 -1.28,7.76 l 33.68,0 0,8.8 q -2.56,22.88 -14.64,34.48 -12.08,11.6 -36.8,14.8 l -2.16,-9.28 q 22.24,-2.48 32.48,-13.44 -8.24,-5.44 -19.04,-11.44 z"
         style="font-style:normal;font-variant:normal;font-weight:bold;font-stretch:normal;font-size:80px;line-height:100%;font-family:'M+ 2c';-inkscape-font-specification:'M+ 2c, Bold';text-align:center;letter-spacing:-15px;writing-mode:lr-tb;text-anchor:middle;fill:#ffffff"
         id="path4236" />
      <path
         d="m 264.19999,891.88218 q 16.24,-3.52 30.88,-11.52 14.64,-8 25.36,-19.28 l 7.52,7.12 q -9.28,9.92 -22.64,18 l 0,37.68 -10.96,0 0,-31.84 q -14,6.64 -27.92,9.44 l -2.24,-9.6 z"
         style="font-style:normal;font-variant:normal;font-weight:bold;font-stretch:normal;font-size:80px;line-height:100%;font-family:'M+ 2c';-inkscape-font-specification:'M+ 2c, Bold';text-align:center;letter-spacing:-15px;writing-mode:lr-tb;text-anchor:middle;fill:#ffffff"
         id="path4238" />
      <path
         d="m 344.55999,862.52218 0,22.64 q 16.8,-3.04 32.8,-8.56 -4.64,-3.6 -4.64,-9.52 0,-4.96 3.52,-8.48 3.52,-3.52 8.48,-3.52 4.96,0 8.48,3.52 3.52,3.52 3.52,8.48 0,4.56 -3.12,8 -3.04,3.44 -7.6,3.92 l 1.36,4.08 q -21.12,7.84 -42.8,11.68 l 0,10.72 q 0,5.12 1.6,6.64 1.6,1.52 6.8,1.52 16.16,0 32.96,-1.36 l 0.32,9.36 q -16.64,1.28 -34.56,1.28 -10.16,0 -14.08,-3.76 -3.92,-3.84 -3.92,-14.24 l 0,-42.4 10.88,0 z m 43.84,8.24 q 1.52,-1.52 1.52,-3.68 0,-2.16 -1.52,-3.68 -1.52,-1.52 -3.68,-1.52 -2.16,0 -3.68,1.52 -1.52,1.52 -1.52,3.68 0,2.16 1.52,3.68 1.52,1.52 3.68,1.52 2.16,0 3.68,-1.52 z"
         style="font-style:normal;font-variant:normal;font-weight:bold;font-stretch:normal;font-size:80px;line-height:100%;font-family:'M+ 2c';-inkscape-font-specification:'M+ 2c, Bold';text-align:center;letter-spacing:-15px;writing-mode:lr-tb;text-anchor:middle;fill:#ffffff"
         id="path4240" />
      <path
         d="m 398.91999,912.68218 q 21.92,-2.16 34.08,-12.24 12.16,-10.08 16.88,-29.92 l 9.84,2.72 q -4.8,22.64 -19.52,34.88 -14.64,12.16 -39.92,14.4 l -1.36,-9.84 z m -1.44,-41.68 5.44,-8.4 q 11.76,6.72 22.56,14.4 l -5.76,8.4 q -11.04,-7.84 -22.24,-14.4 z"
         style="font-style:normal;font-variant:normal;font-weight:bold;font-stretch:normal;font-size:80px;line-height:100%;font-family:'M+ 2c';-inkscape-font-specification:'M+ 2c, Bold';text-align:center;letter-spacing:-15px;writing-mode:lr-tb;text-anchor:middle;fill:#ffffff"
         id="path4242" />
      <path
         d="m 529.91999,865.48218 -7.68,3.68 q -4.32,-8.32 -6.24,-11.84 l 7.68,-3.84 q 3.68,6.72 6.24,12 z m -55.44,-5.36 10.08,0.56 q -0.48,4.88 -1.52,8.8 l 26.72,0 q -2.96,-5.76 -5.76,-11.04 l 7.52,-3.76 q 3.28,6.16 6.08,11.76 l -6.32,3.04 4.48,0 0,9.04 q -2.48,21.36 -14.64,32.4 -12.08,11.04 -36.8,14 l -1.92,-9.28 q 20.48,-2.24 30.48,-11.04 10.08,-8.88 12.08,-26.08 l -25.12,0 q -4.88,10.8 -15.36,21.04 l -7.04,-6.24 q 14.4,-14.8 17.04,-33.2 z"
         style="font-style:normal;font-variant:normal;font-weight:bold;font-stretch:normal;font-size:80px;line-height:100%;font-family:'M+ 2c';-inkscape-font-specification:'M+ 2c, Bold';text-align:center;letter-spacing:-15px;writing-mode:lr-tb;text-anchor:middle;fill:#ffffff"
         id="path4244" />
      <path
         d="m 581.95999,873.24218 -8.24,3.92 q -3.12,-6.32 -6.8,-12.72 l 8.24,-4.16 q 3.68,6.8 6.8,12.96 z m 12.96,-2.56 -8.4,4 q -3.6,-6.96 -6.96,-12.96 l 8.4,-4.24 q 2.88,5.2 6.96,13.2 z m -20,11.68 9.44,-3.44 q 6.72,16.72 10.56,29.36 l -9.68,2.8 q -3.92,-12.72 -10.32,-28.72 z m -33.6,-25.44 9.76,0.88 q -1.04,8.8 -2.32,15.28 3.36,-0.16 4.32,-0.16 4.16,0 6.56,0.16 2.4,0.16 4.48,0.96 2.08,0.8 3.04,1.92 0.96,1.04 1.68,3.36 0.72,2.32 0.88,5.12 0.16,2.8 0.16,7.44 0,15.84 -4.88,24.32 -4.8,8.48 -11.68,8.48 -5.6,0 -14.08,-5.52 l 4.16,-8.56 q 6.4,4.24 8.72,4.24 1.36,0 2.56,-1.44 1.28,-1.52 2.4,-4.4 1.12,-2.88 1.76,-7.84 0.64,-5.04 0.64,-11.44 0,-5.2 -1.12,-6.4 -1.12,-1.28 -5.6,-1.28 -2,0 -6,0.24 -4.96,20.88 -15.44,42.8 l -8.88,-3.76 q 9.36,-19.28 14.16,-38.32 -1.28,0.16 -5.28,0.56 -4,0.32 -6.48,0.56 l -0.64,-9.04 q 9.44,-0.96 14.48,-1.36 1.6,-8.24 2.64,-16.8 z"
         style="font-style:normal;font-variant:normal;font-weight:bold;font-stretch:normal;font-size:80px;line-height:100%;font-family:'M+ 2c';-inkscape-font-specification:'M+ 2c, Bold';text-align:center;letter-spacing:-15px;writing-mode:lr-tb;text-anchor:middle;fill:#ffffff"
         id="path4246" />
      <path
         d="m 86.739989,988.36218 0,-33.28 10.72,0 0,25.28 q 8.640001,-7.44 15.040001,-17.12 6.48,-9.68 11.6,-22.56 l 9.2,3.44 q -6.24,15.92 -14.88,27.68 -8.64,11.76 -20.960001,20.88 l 0,0.88 q 0,2.8 0.48,3.6 0.56,0.72 2.560001,0.88 2.4,0.24 5.36,0.24 2.64,0 5.36,-0.24 1.52,-0.16 2.16,-0.4 0.72,-0.32 1.36,-1.04 0.72,-0.72 0.96,-2.72 0.24,-2.08 0.48,-4.72 0.24,-2.64 0.48,-7.84 l 10,1.6 q -0.48,11.04 -1.52,15.68 -0.96,4.64002 -2.88,6.16002 -1.92,1.6 -6.56,2 -4.64,0.4 -9.36,0.4 -5.36,0 -9.280001,-0.24 -5.68,-0.32 -7.68,-1.68 -2,-1.28 -2.4,-5.60002 -7.04,4.08002 -14.24,7.36002 l -5.44,-8.48002 q 10.72,-4.64 19.44,-10.16 z m -2.48,-42.64 2.96,-8.72 q 14.960001,2.08 29.600001,7.6 l -3.68,8.96 q -14.800001,-5.68 -28.880001,-7.84 z m -18.08,45.44 q 4.08,-11.84 6.24,-30.56 l 9.28,1.04 q -1.52,18.64 -6.32,32 l -9.2,-2.48 z m 58.560001,-27.68 9.6,-2.64 q 4.64,16.24 7.6,36.32 l -9.6,2.08 q -3.12,-21.44 -7.6,-35.76 z"
         style="font-style:normal;font-variant:normal;font-weight:bold;font-stretch:normal;font-size:80px;line-height:100%;font-family:'M+ 2c';-inkscape-font-specification:'M+ 2c, Bold';text-align:center;writing-mode:lr-tb;text-anchor:middle;fill:#ffffff"
         id="path4248" />
      <path
         d="m 166.61999,965.88218 0,-7.6 -7.52,0 0,7.6 7.52,0 z m 18.88,0 0,-7.6 -8.96,0 0,7.6 8.96,0 z m 9.92,0 7.52,0 0,-7.6 -7.52,0 0,7.6 z m -18.72,-18.24 0,3.44 8.64,0 0,-3.44 -8.64,0 z m 8.48,43.12 q 4.72,-2.64 7.84,-6.16 l -21.2,0 q -1.2,1.36 -2.56,2.56 7.52,1.44 15.92,3.6 z m -38.88,-6.16 0,-8 19.76,0 2.64,-3.36 -9.6,0 -9.2,0 0,-22.16 16.64,0 0,-3.44 -20,0 0,-8.4 68.96,0 0,8.4 -20,0 0,3.44 16.64,0 0,22.16 -31.6,0 q -0.24,0.4 -0.72,1.12 -0.4,0.64 -0.8,1.2 -0.32,0.56 -0.64,1.04 l 37.36,0 0,8 -11.76,0 q -3.28,5.28 -8.16,9.28 8.8,2.72 18.48,6.56002 l -5.44,7.92 q -13.36,-5.76 -22.48,-8.80002 -12.88,5.84002 -36.4,8.00002 l -2.48,-8.40002 q 15.36,-0.96 25.44,-3.6 -6.56,-1.68 -10.56,-2.48 -1.68,1.36 -3.68,2.72 l -8.32,-4.48 q 3.68,-2.72 7.92,-6.72 l -12,0 z"
         style="font-style:normal;font-variant:normal;font-weight:bold;font-stretch:normal;font-size:80px;line-height:100%;font-family:'M+ 2c';-inkscape-font-specification:'M+ 2c, Bold';text-align:center;writing-mode:lr-tb;text-anchor:middle;fill:#ffffff"
         id="path4250" />
      <path
         d="m 223.61999,947.64218 q 29.76,0 63.68,-4.32 l 0.88,9.6 q -16.72,2.16 -25.44,8.56 -8.72,6.32 -8.72,14.96 0,7.92 6.4,12.8 6.4,4.8 18.4,5.6 l -1.12,9.84002 q -16.32,-0.8 -25.52,-7.92002 -9.2,-7.2 -9.2,-18.72 0,-6.8 3.68,-12.64 3.76,-5.92 10.64,-9.92 l 0,-0.16 q -18.72,2.32 -33.68,2.32 l 0,-10 z m 59.84,28.8 -8.24,3.92 q -3.12,-6.32 -6.8,-12.72 l 8.24,-4.16 q 3.68,6.8 6.8,12.96 z m 12.96,-2.56 -8.4,4 q -3.6,-6.96 -6.96,-12.96 l 8.4,-4.24 q 2.88,5.2 6.96,13.2 z"
         style="font-style:normal;font-variant:normal;font-weight:bold;font-stretch:normal;font-size:80px;line-height:100%;font-family:'M+ 2c';-inkscape-font-specification:'M+ 2c, Bold';text-align:center;writing-mode:lr-tb;text-anchor:middle;fill:#ffffff"
         id="path4252" />
      <path
         d="m 318.29999,997.08218 q 17.44,-1.12 21.12,-8.4 0.4,-0.72 0.88,-2.4 l -0.16,-0.08 q -3.68,3.28 -9.68,3.28 -7.04,0 -11.52,-4.24 -4.48,-4.32 -4.48,-11.2 0,-6.64 4.48,-10.88 4.56,-4.32 11.52,-4.32 3.76,0 7.52,1.52 l 0.16,0 q 0,-2.08 -0.16,-5.44 -22.64,0.96 -37.12,0.96 l 0,-8.8 q 14.16,0 36.8,-0.96 -0.24,-9.6 -0.24,-9.68 l 10.16,0 q 0,2.8 0.16,9.2 10.24,-0.56 21.36,-1.52 l 0.64,8.8 q -11.2,0.96 -21.76,1.52 0.4,12 0.4,14.08 2.64,5.12 2.64,12.4 0,11.84 -7.52,18.24 -7.44,6.32002 -23.6,7.36002 l -1.6,-9.44002 z m 8.64,-27.92 q -2.08,2.08 -2.08,5.12 0,3.04 2.08,5.12 2.16,2.08 5.12,2.08 2.96,0 5.04,-2.08 2.16,-2.08 2.16,-5.12 0,-3.04 -2.16,-5.12 -2.08,-2.08 -5.04,-2.08 -2.96,0 -5.12,2.08 z"
         style="font-style:normal;font-variant:normal;font-weight:bold;font-stretch:normal;font-size:80px;line-height:100%;font-family:'M+ 2c';-inkscape-font-specification:'M+ 2c, Bold';text-align:center;writing-mode:lr-tb;text-anchor:middle;fill:#ffffff"
         id="path4254" />
      <path
         d="m 425.93999,951.08218 9.52,-3.36 q 7.84,17.76 13.6,39.28 l -9.52,2.72 q -5.52,-20.4 -13.6,-38.64 z m -31.76,2.64 q 1.6,-8.24 2.64,-16.8 l 9.76,0.88 q -1.04,8.8 -2.32,15.28 3.36,-0.16 4.32,-0.16 4.16,0 6.56,0.16 2.4,0.16 4.48,0.96 2.08,0.8 3.04,1.92 0.96,1.04 1.68,3.36 0.72,2.32 0.88,5.12 0.16,2.8 0.16,7.44 0,15.84 -4.88,24.32 -4.8,8.48002 -11.68,8.48002 -5.6,0 -14.08,-5.52002 l 4.16,-8.56 q 6.4,4.24 8.72,4.24 1.36,0 2.56,-1.44 1.28,-1.52 2.4,-4.4 1.12,-2.88 1.76,-7.84 0.64,-5.04 0.64,-11.44 0,-5.2 -1.12,-6.4 -1.12,-1.28 -5.6,-1.28 -2,0 -6,0.24 -4.96,20.88 -15.44,42.80002 l -8.88,-3.76 q 9.36,-19.28002 14.16,-38.32002 -1.28,0.16 -5.28,0.56 -4,0.32 -6.48,0.56 l -0.64,-9.04 q 9.44,-0.96 14.48,-1.36 z"
         style="font-style:normal;font-variant:normal;font-weight:bold;font-stretch:normal;font-size:80px;line-height:100%;font-family:'M+ 2c';-inkscape-font-specification:'M+ 2c, Bold';text-align:center;writing-mode:lr-tb;text-anchor:middle;fill:#ffffff"
         id="path4256" />
      <path
         d="m 467.17999,945.24218 q 11.12,-2.96 22.08,-2.96 10.4,0 16.16,3.84 5.76,3.76 5.76,10 0,2.88 -0.8,5.12 -0.8,2.24 -2.64,4.08 -1.76,1.84 -3.12,2.88 -1.36,1.04 -4,2.72 -2.48,1.6 -3.68,2.48 -1.12,0.8 -2.8,2.48 -1.68,1.6 -2.48,3.52 -0.72,1.84 -0.8,4.24 l -10.64,0 q 0,-2.64 0.72,-4.96 0.8,-2.4 1.76,-3.92 0.96,-1.6 2.8,-3.28 1.84,-1.76 2.96,-2.56 1.2,-0.88 3.36,-2.32 2.64,-1.76 3.84,-2.72 1.28,-0.96 2.48,-2.72 1.28,-1.76 1.28,-3.68 0,-6.16 -11.76,-6.16 -8.32,0 -18.48,2.96 l -2,-9.04 z m 12.48,56.24002 0,-11.20002 11.76,0 0,11.20002 -11.76,0 z"
         style="font-style:normal;font-variant:normal;font-weight:bold;font-stretch:normal;font-size:80px;line-height:100%;font-family:'M+ 2c';-inkscape-font-specification:'M+ 2c, Bold';text-align:center;writing-mode:lr-tb;text-anchor:middle;fill:#ffffff"
         id="path4258" />
    </g>
  </g>
</svg>
